<svg xmlns="http://www.w3.org/2000/svg" viewBox="0 0 820 340" font-family="Segoe UI, Arial, sans-serif" role="img" aria-label="Från DNA till mRNA till protein">
  <defs>
    <marker id="ar" markerWidth="10" markerHeight="10" refX="7" refY="5" orient="auto">
      <path d="M0,0 L10,5 L0,10 Z" fill="#15803d"/>
    </marker>
  </defs>
  <rect x="0" y="0" width="820" height="340" fill="#f0fdf4" rx="14"/>
  <text x="410" y="34" text-anchor="middle" font-size="22" font-weight="700" fill="#166534">Från DNA till protein</text>

  <!-- Cellkärna box -->
  <rect x="24" y="58" width="356" height="234" rx="14" fill="#eafff0" stroke="#bbf7d0" stroke-width="2"/>
  <text x="202" y="80" text-anchor="middle" font-size="13" font-weight="700" fill="#15803d">I CELLKÄRNAN</text>

  <!-- DNA -->
  <text x="120" y="116" text-anchor="middle" font-size="16" font-weight="700" fill="#15803d">DNA</text>
  <g stroke="#15803d" stroke-width="3.5" fill="none">
    <path d="M70 132 C 110 152, 70 172, 110 192 M110 132 C 70 152, 110 172, 70 192"/>
  </g>
  <g stroke="#22c55e" stroke-width="3">
    <line x1="82" y1="142" x2="98" y2="142"/><line x1="78" y1="162" x2="102" y2="162"/><line x1="82" y1="182" x2="98" y2="182"/>
  </g>

  <!-- transkription arrow -->
  <line x1="140" y1="162" x2="214" y2="162" stroke="#15803d" stroke-width="2.5" marker-end="url(#ar)"/>
  <text x="177" y="150" text-anchor="middle" font-size="13" font-weight="700" fill="#166534">transkription</text>

  <!-- mRNA -->
  <text x="300" y="116" text-anchor="middle" font-size="16" font-weight="700" fill="#15803d">mRNA</text>
  <path d="M250 168 Q 270 150, 290 168 T 330 168 T 350 168" stroke="#16a34a" stroke-width="4" fill="none"/>
  <g font-size="11" font-weight="700" fill="#14532d" text-anchor="middle">
    <text x="262" y="190">A</text><text x="286" y="190">U</text><text x="310" y="190">G</text><text x="334" y="190">C</text>
  </g>
  <text x="300" y="214" text-anchor="middle" font-size="11.5" fill="#3f6b4e">kopia av genen</text>

  <!-- mRNA leaves nucleus arrow -->
  <line x1="390" y1="175" x2="452" y2="175" stroke="#15803d" stroke-width="2.5" marker-end="url(#ar)"/>
  <text x="421" y="163" text-anchor="middle" font-size="11.5" fill="#3f6b4e">ut ur kärnan</text>

  <!-- Ribosom box -->
  <rect x="470" y="58" width="326" height="234" rx="14" fill="#eafff0" stroke="#bbf7d0" stroke-width="2"/>
  <text x="633" y="80" text-anchor="middle" font-size="13" font-weight="700" fill="#15803d">VID RIBOSOMEN</text>

  <!-- ribosom -->
  <ellipse cx="560" cy="175" rx="34" ry="40" fill="#86efac" stroke="#16a34a" stroke-width="2"/>
  <ellipse cx="560" cy="160" rx="34" ry="18" fill="#16a34a" opacity="0.3"/>
  <text x="560" y="240" text-anchor="middle" font-size="13" font-weight="700" fill="#15803d">Ribosom</text>
  <text x="560" y="257" text-anchor="middle" font-size="11" fill="#3f6b4e">läser mRNA:t</text>

  <!-- translation arrow -->
  <line x1="600" y1="160" x2="648" y2="160" stroke="#15803d" stroke-width="2.5" marker-end="url(#ar)"/>
  <text x="650" y="118" text-anchor="middle" font-size="13" font-weight="700" fill="#166534">translation</text>

  <!-- protein chain -->
  <g>
    <circle cx="676" cy="150" r="13" fill="#15803d"/>
    <circle cx="700" cy="138" r="13" fill="#16a34a"/>
    <circle cx="724" cy="150" r="13" fill="#22c55e"/>
    <circle cx="748" cy="138" r="13" fill="#15803d"/>
    <circle cx="772" cy="150" r="13" fill="#16a34a"/>
    <line x1="676" y1="150" x2="772" y2="150" stroke="#15803d" stroke-width="2" opacity="0.4"/>
    <text x="724" y="200" text-anchor="middle" font-size="13" font-weight="700" fill="#15803d">Protein</text>
    <text x="724" y="217" text-anchor="middle" font-size="11" fill="#3f6b4e">kedja av aminosyror</text>
  </g>

  <text x="410" y="322" text-anchor="middle" font-size="12.5" fill="#3f6b4e" font-style="italic">Tre baser i mRNA (ett kodon) bestämmer en aminosyra. Aminosyrornas ordning ger proteinets form och funktion.</text>
</svg>
