<svg viewBox="0 0 560 650" xmlns="http://www.w3.org/2000/svg" font-family="system-ui,-apple-system,Segoe UI,Arial,sans-serif" role="img" aria-label="DNA dubbelspiral med baspar A-T och G-C">
<rect width="560" height="650" rx="16" fill="#f0fdf4"/>
<text x="280" y="40" text-anchor="middle" font-size="24" font-weight="800" fill="#166534">DNA – baspar</text>
<text x="280" y="64" text-anchor="middle" font-size="14" fill="#3f6b4e">A binder alltid till T · G binder alltid till C</text>
<path d="M 130.0,95.0 L 132.4,99.0 L 139.6,103.0 L 151.2,107.0 L 167.0,111.0 L 186.5,115.0 L 208.9,119.0 L 233.6,123.0 L 259.9,127.0 L 286.7,131.0 L 313.4,135.0 L 339.0,139.0 L 362.6,143.0 L 383.7,147.0 L 401.4,151.0 L 415.1,155.0 L 424.6,159.0 L 429.4,163.0 L 429.4,167.0 L 424.6,171.0 L 415.1,175.0 L 401.4,179.0 L 383.7,183.0 L 362.6,187.0 L 339.0,191.0 L 313.4,195.0 L 286.7,199.0 L 259.9,203.0 L 233.6,207.0 L 208.9,211.0 L 186.5,215.0 L 167.0,219.0 L 151.2,223.0 L 139.6,227.0 L 132.4,231.0 L 130.0,235.0 L 132.4,239.0 L 139.6,243.0 L 151.2,247.0 L 167.0,251.0 L 186.5,255.0 L 208.9,259.0 L 233.6,263.0 L 259.9,267.0 L 286.7,271.0 L 313.4,275.0 L 339.0,279.0 L 362.6,283.0 L 383.7,287.0 L 401.4,291.0 L 415.1,295.0 L 424.6,299.0 L 429.4,303.0 L 429.4,307.0 L 424.6,311.0 L 415.1,315.0 L 401.4,319.0 L 383.7,323.0 L 362.6,327.0 L 339.0,331.0 L 313.4,335.0 L 286.7,339.0 L 259.9,343.0 L 233.6,347.0 L 208.9,351.0 L 186.5,355.0 L 167.0,359.0 L 151.2,363.0 L 139.6,367.0 L 132.4,371.0 L 130.0,375.0 L 132.4,379.0 L 139.6,383.0 L 151.2,387.0 L 167.0,391.0 L 186.5,395.0 L 208.9,399.0 L 233.6,403.0 L 259.9,407.0 L 286.7,411.0 L 313.4,415.0 L 339.0,419.0 L 362.6,423.0 L 383.7,427.0 L 401.4,431.0 L 415.1,435.0 L 424.6,439.0 L 429.4,443.0 L 429.4,447.0 L 424.6,451.0 L 415.1,455.0 L 401.4,459.0 L 383.7,463.0 L 362.6,467.0 L 339.0,471.0 L 313.4,475.0 L 286.7,479.0 L 259.9,483.0 L 233.6,487.0 L 208.9,491.0 L 186.5,495.0 L 167.0,499.0 L 151.2,503.0 L 139.6,507.0 L 132.4,511.0 L 130.0,515.0 L 132.4,519.0 L 139.6,523.0 L 151.2,527.0 L 167.0,531.0 L 186.5,535.0 L 208.9,539.0 L 233.6,543.0 L 259.9,547.0 L 286.7,551.0 L 313.4,555.0 L 339.0,559.0 L 362.6,563.0 L 383.7,567.0 L 401.4,571.0 L 415.1,575.0 L 424.6,579.0 L 429.4,583.0" fill="none" stroke="#ec4899" stroke-width="13" stroke-linecap="round" opacity="0.95"/>
<path d="M 430.0,95.0 L 427.6,99.0 L 420.4,103.0 L 408.8,107.0 L 393.0,111.0 L 373.5,115.0 L 351.1,119.0 L 326.4,123.0 L 300.1,127.0 L 273.3,131.0 L 246.6,135.0 L 221.0,139.0 L 197.4,143.0 L 176.3,147.0 L 158.6,151.0 L 144.9,155.0 L 135.4,159.0 L 130.6,163.0 L 130.6,167.0 L 135.4,171.0 L 144.9,175.0 L 158.6,179.0 L 176.3,183.0 L 197.4,187.0 L 221.0,191.0 L 246.6,195.0 L 273.3,199.0 L 300.1,203.0 L 326.4,207.0 L 351.1,211.0 L 373.5,215.0 L 393.0,219.0 L 408.8,223.0 L 420.4,227.0 L 427.6,231.0 L 430.0,235.0 L 427.6,239.0 L 420.4,243.0 L 408.8,247.0 L 393.0,251.0 L 373.5,255.0 L 351.1,259.0 L 326.4,263.0 L 300.1,267.0 L 273.3,271.0 L 246.6,275.0 L 221.0,279.0 L 197.4,283.0 L 176.3,287.0 L 158.6,291.0 L 144.9,295.0 L 135.4,299.0 L 130.6,303.0 L 130.6,307.0 L 135.4,311.0 L 144.9,315.0 L 158.6,319.0 L 176.3,323.0 L 197.4,327.0 L 221.0,331.0 L 246.6,335.0 L 273.3,339.0 L 300.1,343.0 L 326.4,347.0 L 351.1,351.0 L 373.5,355.0 L 393.0,359.0 L 408.8,363.0 L 420.4,367.0 L 427.6,371.0 L 430.0,375.0 L 427.6,379.0 L 420.4,383.0 L 408.8,387.0 L 393.0,391.0 L 373.5,395.0 L 351.1,399.0 L 326.4,403.0 L 300.1,407.0 L 273.3,411.0 L 246.6,415.0 L 221.0,419.0 L 197.4,423.0 L 176.3,427.0 L 158.6,431.0 L 144.9,435.0 L 135.4,439.0 L 130.6,443.0 L 130.6,447.0 L 135.4,451.0 L 144.9,455.0 L 158.6,459.0 L 176.3,463.0 L 197.4,467.0 L 221.0,471.0 L 246.6,475.0 L 273.3,479.0 L 300.1,483.0 L 326.4,487.0 L 351.1,491.0 L 373.5,495.0 L 393.0,499.0 L 408.8,503.0 L 420.4,507.0 L 427.6,511.0 L 430.0,515.0 L 427.6,519.0 L 420.4,523.0 L 408.8,527.0 L 393.0,531.0 L 373.5,535.0 L 351.1,539.0 L 326.4,543.0 L 300.1,547.0 L 273.3,551.0 L 246.6,555.0 L 221.0,559.0 L 197.4,563.0 L 176.3,567.0 L 158.6,571.0 L 144.9,575.0 L 135.4,579.0 L 130.6,583.0" fill="none" stroke="#38bdf8" stroke-width="13" stroke-linecap="round" opacity="0.95"/>
<rect x="142" y="76" width="132" height="38" rx="7" fill="#2563eb"/>
<text x="158" y="101" font-size="19" font-weight="800" fill="#fff">A</text>
<text x="178" y="100" font-size="12.5" fill="#fff">Adenine</text>
<rect x="286" y="76" width="132" height="38" rx="7" fill="#dc2626"/>
<text x="302" y="101" font-size="19" font-weight="800" fill="#fff">T</text>
<text x="322" y="100" font-size="12.5" fill="#fff">Thymine</text>
<line x1="276" y1="95" x2="284" y2="95" stroke="#94a3b8" stroke-width="3" stroke-dasharray="2 2"/>
<rect x="142" y="146" width="132" height="38" rx="7" fill="#16a34a"/>
<text x="158" y="171" font-size="19" font-weight="800" fill="#fff">G</text>
<text x="178" y="170" font-size="12.5" fill="#fff">Guanine</text>
<rect x="286" y="146" width="132" height="38" rx="7" fill="#ea8a2a"/>
<text x="302" y="171" font-size="19" font-weight="800" fill="#fff">C</text>
<text x="322" y="170" font-size="12.5" fill="#fff">Cytosine</text>
<line x1="276" y1="165" x2="284" y2="165" stroke="#94a3b8" stroke-width="3" stroke-dasharray="2 2"/>
<rect x="142" y="216" width="132" height="38" rx="7" fill="#dc2626"/>
<text x="158" y="241" font-size="19" font-weight="800" fill="#fff">T</text>
<text x="178" y="240" font-size="12.5" fill="#fff">Thymine</text>
<rect x="286" y="216" width="132" height="38" rx="7" fill="#2563eb"/>
<text x="302" y="241" font-size="19" font-weight="800" fill="#fff">A</text>
<text x="322" y="240" font-size="12.5" fill="#fff">Adenine</text>
<line x1="276" y1="235" x2="284" y2="235" stroke="#94a3b8" stroke-width="3" stroke-dasharray="2 2"/>
<rect x="142" y="286" width="132" height="38" rx="7" fill="#ea8a2a"/>
<text x="158" y="311" font-size="19" font-weight="800" fill="#fff">C</text>
<text x="178" y="310" font-size="12.5" fill="#fff">Cytosine</text>
<rect x="286" y="286" width="132" height="38" rx="7" fill="#16a34a"/>
<text x="302" y="311" font-size="19" font-weight="800" fill="#fff">G</text>
<text x="322" y="310" font-size="12.5" fill="#fff">Guanine</text>
<line x1="276" y1="305" x2="284" y2="305" stroke="#94a3b8" stroke-width="3" stroke-dasharray="2 2"/>
<rect x="142" y="356" width="132" height="38" rx="7" fill="#2563eb"/>
<text x="158" y="381" font-size="19" font-weight="800" fill="#fff">A</text>
<text x="178" y="380" font-size="12.5" fill="#fff">Adenine</text>
<rect x="286" y="356" width="132" height="38" rx="7" fill="#dc2626"/>
<text x="302" y="381" font-size="19" font-weight="800" fill="#fff">T</text>
<text x="322" y="380" font-size="12.5" fill="#fff">Thymine</text>
<line x1="276" y1="375" x2="284" y2="375" stroke="#94a3b8" stroke-width="3" stroke-dasharray="2 2"/>
<rect x="142" y="426" width="132" height="38" rx="7" fill="#16a34a"/>
<text x="158" y="451" font-size="19" font-weight="800" fill="#fff">G</text>
<text x="178" y="450" font-size="12.5" fill="#fff">Guanine</text>
<rect x="286" y="426" width="132" height="38" rx="7" fill="#ea8a2a"/>
<text x="302" y="451" font-size="19" font-weight="800" fill="#fff">C</text>
<text x="322" y="450" font-size="12.5" fill="#fff">Cytosine</text>
<line x1="276" y1="445" x2="284" y2="445" stroke="#94a3b8" stroke-width="3" stroke-dasharray="2 2"/>
<rect x="142" y="496" width="132" height="38" rx="7" fill="#dc2626"/>
<text x="158" y="521" font-size="19" font-weight="800" fill="#fff">T</text>
<text x="178" y="520" font-size="12.5" fill="#fff">Thymine</text>
<rect x="286" y="496" width="132" height="38" rx="7" fill="#2563eb"/>
<text x="302" y="521" font-size="19" font-weight="800" fill="#fff">A</text>
<text x="322" y="520" font-size="12.5" fill="#fff">Adenine</text>
<line x1="276" y1="515" x2="284" y2="515" stroke="#94a3b8" stroke-width="3" stroke-dasharray="2 2"/>
<rect x="142" y="566" width="132" height="38" rx="7" fill="#ea8a2a"/>
<text x="158" y="591" font-size="19" font-weight="800" fill="#fff">C</text>
<text x="178" y="590" font-size="12.5" fill="#fff">Cytosine</text>
<rect x="286" y="566" width="132" height="38" rx="7" fill="#16a34a"/>
<text x="302" y="591" font-size="19" font-weight="800" fill="#fff">G</text>
<text x="322" y="590" font-size="12.5" fill="#fff">Guanine</text>
<line x1="276" y1="585" x2="284" y2="585" stroke="#94a3b8" stroke-width="3" stroke-dasharray="2 2"/>
<text x="280" y="632" text-anchor="middle" font-size="12" fill="#3f6b4e">De två strängarna snor sig om varandra till en dubbelspiral.</text>
</svg>