<svg xmlns="http://www.w3.org/2000/svg" viewBox="0 0 820 340" font-family="Segoe UI, Arial, sans-serif" role="img" aria-label="Från DNA till mRNA till protein">
  <defs>
    <marker id="ar" markerWidth="10" markerHeight="10" refX="7" refY="5" orient="auto">
      <path d="M0,0 L10,5 L0,10 Z" fill="#15803d"/>
    </marker>
  </defs>
  <rect x="0" y="0" width="820" height="340" fill="#f0fdf4" rx="14"/>
  <text x="410" y="34" text-anchor="middle" font-size="22" font-weight="700" fill="#166534">Från DNA till protein</text>

  <!-- Cellkärna box -->
  <rect x="24" y="58" width="356" height="234" rx="14" fill="#eafff0" stroke="#bbf7d0" stroke-width="2"/>
  <text x="202" y="80" text-anchor="middle" font-size="13" font-weight="700" fill="#15803d">I CELLKÄRNAN</text>

  <!-- DNA -->
  <text x="90" y="116" text-anchor="middle" font-size="16" font-weight="700" fill="#15803d">DNA</text>
  <g transform="translate(-290,16)" stroke-linecap="round">
    <!-- rungs (baspar) bakom -->
    <g stroke="#22c55e" stroke-width="3.2" stroke-linecap="round">
      <line x1="388.5" y1="120.7" x2="371.5" y2="120.7"/>
      <line x1="374.2" y1="125.6" x2="385.8" y2="125.6"/>
      <line x1="364.0" y1="130.4" x2="396.0" y2="130.4"/>
      <line x1="365.3" y1="135.3" x2="394.7" y2="135.3"/>
      <line x1="377.0" y1="140.2" x2="383.0" y2="140.2"/>
      <line x1="390.9" y1="145.1" x2="369.1" y2="145.1"/>
      <line x1="397.0" y1="150.0" x2="363.0" y2="150.0"/>
      <line x1="390.9" y1="154.9" x2="369.1" y2="154.9"/>
      <line x1="377.0" y1="159.8" x2="383.0" y2="159.8"/>
      <line x1="365.3" y1="164.7" x2="394.7" y2="164.7"/>
      <line x1="364.0" y1="169.6" x2="396.0" y2="169.6"/>
      <line x1="374.2" y1="174.4" x2="385.8" y2="174.4"/>
      <line x1="388.5" y1="179.3" x2="371.5" y2="179.3"/>
    </g>
    <!-- bakre sträng (öppen ände, möter inte den främre) -->
    <polyline fill="none" stroke="#166534" stroke-width="6.8" points="363.2,115.6 364.3,117.0 366.3,118.4 369.2,119.8 372.7,121.1 376.7,122.5 380.8,123.9 384.9,125.2 388.7,126.6 392.0,128.0 394.6,129.4 396.3,130.8 397.0,132.1 396.7,133.5 395.4,134.9 393.1,136.2 390.1,137.6 386.5,139.0 382.5,140.4 378.3,141.8 374.3,143.1 370.6,144.5 367.4,145.9 365.0,147.2 363.5,148.6 363.0,150.0 363.5,151.4 365.0,152.8 367.4,154.1 370.6,155.5 374.3,156.9 378.3,158.2 382.5,159.6 386.5,161.0 390.1,162.4 393.1,163.8 395.4,165.1 396.7,166.5 397.0,167.9 396.3,169.2 394.6,170.6 392.0,172.0 388.7,173.4 384.9,174.8 380.8,176.1 376.7,177.5 372.7,178.9 369.2,180.2 366.3,181.6 364.3,183.0 363.2,184.4"/>
    <polyline fill="none" stroke="#4ade80" stroke-width="2.2" points="363.2,115.6 364.3,117.0 366.3,118.4 369.2,119.8 372.7,121.1 376.7,122.5 380.8,123.9 384.9,125.2 388.7,126.6 392.0,128.0 394.6,129.4 396.3,130.8 397.0,132.1 396.7,133.5 395.4,134.9 393.1,136.2 390.1,137.6 386.5,139.0 382.5,140.4 378.3,141.8 374.3,143.1 370.6,144.5 367.4,145.9 365.0,147.2 363.5,148.6 363.0,150.0 363.5,151.4 365.0,152.8 367.4,154.1 370.6,155.5 374.3,156.9 378.3,158.2 382.5,159.6 386.5,161.0 390.1,162.4 393.1,163.8 395.4,165.1 396.7,166.5 397.0,167.9 396.3,169.2 394.6,170.6 392.0,172.0 388.7,173.4 384.9,174.8 380.8,176.1 376.7,177.5 372.7,178.9 369.2,180.2 366.3,181.6 364.3,183.0 363.2,184.4"/>
    <!-- främre sträng (öppen ände, möter inte den bakre) -->
    <polyline fill="none" stroke="#15803d" stroke-width="7" points="396.8,115.6 395.7,117.0 393.7,118.4 390.8,119.8 387.3,121.1 383.3,122.5 379.2,123.9 375.1,125.2 371.3,126.6 368.0,128.0 365.4,129.4 363.7,130.8 363.0,132.1 363.3,133.5 364.6,134.9 366.9,136.2 369.9,137.6 373.5,139.0 377.5,140.4 381.7,141.8 385.7,143.1 389.4,144.5 392.6,145.9 395.0,147.2 396.5,148.6 397.0,150.0 396.5,151.4 395.0,152.8 392.6,154.1 389.4,155.5 385.7,156.9 381.7,158.2 377.5,159.6 373.5,161.0 369.9,162.4 366.9,163.8 364.6,165.1 363.3,166.5 363.0,167.9 363.7,169.2 365.4,170.6 368.0,172.0 371.3,173.4 375.1,174.8 379.2,176.1 383.3,177.5 387.3,178.9 390.8,180.2 393.7,181.6 395.7,183.0 396.8,184.4"/>
    <polyline fill="none" stroke="#86efac" stroke-width="2.4" points="396.8,115.6 395.7,117.0 393.7,118.4 390.8,119.8 387.3,121.1 383.3,122.5 379.2,123.9 375.1,125.2 371.3,126.6 368.0,128.0 365.4,129.4 363.7,130.8 363.0,132.1 363.3,133.5 364.6,134.9 366.9,136.2 369.9,137.6 373.5,139.0 377.5,140.4 381.7,141.8 385.7,143.1 389.4,144.5 392.6,145.9 395.0,147.2 396.5,148.6 397.0,150.0 396.5,151.4 395.0,152.8 392.6,154.1 389.4,155.5 385.7,156.9 381.7,158.2 377.5,159.6 373.5,161.0 369.9,162.4 366.9,163.8 364.6,165.1 363.3,166.5 363.0,167.9 363.7,169.2 365.4,170.6 368.0,172.0 371.3,173.4 375.1,174.8 379.2,176.1 383.3,177.5 387.3,178.9 390.8,180.2 393.7,181.6 395.7,183.0 396.8,184.4"/>
  </g>

  <!-- transkription arrow -->
  <line x1="140" y1="162" x2="214" y2="162" stroke="#15803d" stroke-width="2.5" marker-end="url(#ar)"/>
  <text x="177" y="144" text-anchor="middle" font-size="13" font-weight="700" fill="#166534">transkription</text>

  <!-- mRNA -->
  <text x="300" y="116" text-anchor="middle" font-size="16" font-weight="700" fill="#15803d">mRNA</text>
  <path d="M250 168 Q 270 150, 290 168 T 330 168 T 350 168" stroke="#16a34a" stroke-width="4" fill="none"/>
  <g font-size="11" font-weight="700" fill="#14532d" text-anchor="middle">
    <text x="262" y="190">A</text><text x="286" y="190">U</text><text x="310" y="190">G</text><text x="334" y="190">C</text>
  </g>
  <text x="300" y="214" text-anchor="middle" font-size="11.5" fill="#3f6b4e">kopia av genen</text>

  <!-- mRNA leaves nucleus arrow -->
  <line x1="390" y1="175" x2="452" y2="175" stroke="#15803d" stroke-width="2.5" marker-end="url(#ar)"/>
  <text x="421" y="155" text-anchor="middle" font-size="11.5" fill="#3f6b4e">ut ur kärnan</text>

  <!-- Ribosom box -->
  <rect x="470" y="58" width="326" height="234" rx="14" fill="#eafff0" stroke="#bbf7d0" stroke-width="2"/>
  <text x="633" y="80" text-anchor="middle" font-size="13" font-weight="700" fill="#15803d">VID RIBOSOMEN</text>

  <!-- ribosom -->
  <ellipse cx="560" cy="175" rx="34" ry="40" fill="#86efac" stroke="#16a34a" stroke-width="2"/>
  <ellipse cx="560" cy="160" rx="34" ry="18" fill="#16a34a" opacity="0.3"/>
  <text x="560" y="240" text-anchor="middle" font-size="13" font-weight="700" fill="#15803d">Ribosom</text>
  <text x="560" y="257" text-anchor="middle" font-size="11" fill="#3f6b4e">läser mRNA:t</text>

  <!-- translation arrow -->
  <line x1="600" y1="160" x2="648" y2="160" stroke="#15803d" stroke-width="2.5" marker-end="url(#ar)"/>
  <text x="650" y="118" text-anchor="middle" font-size="13" font-weight="700" fill="#166534">translation</text>

  <!-- protein chain -->
  <g>
    <circle cx="676" cy="150" r="13" fill="#15803d"/>
    <circle cx="700" cy="138" r="13" fill="#16a34a"/>
    <circle cx="724" cy="150" r="13" fill="#22c55e"/>
    <circle cx="748" cy="138" r="13" fill="#15803d"/>
    <circle cx="772" cy="150" r="13" fill="#16a34a"/>
    <line x1="676" y1="150" x2="772" y2="150" stroke="#15803d" stroke-width="2" opacity="0.4"/>
    <text x="724" y="200" text-anchor="middle" font-size="13" font-weight="700" fill="#15803d">Protein</text>
    <text x="724" y="217" text-anchor="middle" font-size="11" fill="#3f6b4e">kedja av aminosyror</text>
  </g>

  <text x="410" y="322" text-anchor="middle" font-size="12.5" fill="#3f6b4e" font-style="italic">Tre baser i mRNA (ett kodon) bestämmer en aminosyra. Aminosyrornas ordning ger proteinets form och funktion.</text>
</svg>
