<svg viewBox="0 0 760 470" xmlns="http://www.w3.org/2000/svg" font-family="system-ui,-apple-system,Segoe UI,Arial,sans-serif" role="img" aria-label="Homologt kromosompar med gener och alleler">
<rect width="760" height="470" rx="16" fill="#f0fdf4"/>
<text x="380" y="40" text-anchor="middle" font-size="24" font-weight="800" fill="#166534">Homologa kromosomer</text>
<text x="380" y="64" text-anchor="middle" font-size="14" fill="#3f6b4e">Ett par – en kromosom från modern och en från fadern</text>
<path d="M 304,116 Q 304,96 324,96 L 336,96 Q 356,96 356,116 L 356,235 C 356,243 348,243 348,250 C 348,257 356,257 356,265 L 356,410 Q 356,430 336,430 L 324,430 Q 304,430 304,410 L 304,265 C 304,257 312,257 312,250 C 312,243 304,243 304,235 Z" fill="#d7dade" stroke="#8a9098" stroke-width="2"/>
<rect x="308" y="128" width="44" height="9" rx="3" fill="#9aa0a6" opacity="0.8"/>
<rect x="308" y="150" width="44" height="7" rx="3" fill="#6b7178" opacity="0.8"/>
<rect x="308" y="190" width="44" height="9" rx="3" fill="#b6bbc0" opacity="0.8"/>
<rect x="308" y="288" width="44" height="8" rx="3" fill="#9aa0a6" opacity="0.8"/>
<rect x="308" y="330" width="44" height="7" rx="3" fill="#6b7178" opacity="0.8"/>
<rect x="308" y="388" width="44" height="9" rx="3" fill="#9aa0a6" opacity="0.8"/>
<ellipse cx="330" cy="250" rx="15" ry="9" fill="#eef1f3" stroke="#aab0b6" stroke-width="1"/>
<path d="M 404,116 Q 404,96 424,96 L 436,96 Q 456,96 456,116 L 456,235 C 456,243 448,243 448,250 C 448,257 456,257 456,265 L 456,410 Q 456,430 436,430 L 424,430 Q 404,430 404,410 L 404,265 C 404,257 412,257 412,250 C 412,243 404,243 404,235 Z" fill="#d7dade" stroke="#8a9098" stroke-width="2"/>
<rect x="408" y="128" width="44" height="9" rx="3" fill="#9aa0a6" opacity="0.8"/>
<rect x="408" y="150" width="44" height="7" rx="3" fill="#6b7178" opacity="0.8"/>
<rect x="408" y="190" width="44" height="9" rx="3" fill="#b6bbc0" opacity="0.8"/>
<rect x="408" y="288" width="44" height="8" rx="3" fill="#9aa0a6" opacity="0.8"/>
<rect x="408" y="330" width="44" height="7" rx="3" fill="#6b7178" opacity="0.8"/>
<rect x="408" y="388" width="44" height="9" rx="3" fill="#9aa0a6" opacity="0.8"/>
<ellipse cx="430" cy="250" rx="15" ry="9" fill="#eef1f3" stroke="#aab0b6" stroke-width="1"/>
<rect x="308" y="155" width="44" height="20" rx="4" fill="#16a34a" stroke="#1f2937" stroke-width="1.2" stroke-opacity="0.45"/><text x="330" y="171" text-anchor="middle" font-size="15" font-weight="800" fill="#fff">A</text>
<rect x="308" y="290" width="44" height="20" rx="4" fill="#ea8a2a" stroke="#1f2937" stroke-width="1.2" stroke-opacity="0.45"/><text x="330" y="306" text-anchor="middle" font-size="15" font-weight="800" fill="#fff">B</text>
<rect x="308" y="350" width="44" height="20" rx="4" fill="#7c3aed" stroke="#1f2937" stroke-width="1.2" stroke-opacity="0.45"/><text x="330" y="366" text-anchor="middle" font-size="15" font-weight="800" fill="#fff">D</text>
<rect x="408" y="155" width="44" height="20" rx="4" fill="#16a34a" stroke="#1f2937" stroke-width="1.2" stroke-opacity="0.45"/><text x="430" y="171" text-anchor="middle" font-size="15" font-weight="800" fill="#fff">a</text>
<rect x="408" y="290" width="44" height="20" rx="4" fill="#ea8a2a" stroke="#1f2937" stroke-width="1.2" stroke-opacity="0.45"/><text x="430" y="306" text-anchor="middle" font-size="15" font-weight="800" fill="#fff">B</text>
<rect x="408" y="350" width="44" height="20" rx="4" fill="#7c3aed" stroke="#1f2937" stroke-width="1.2" stroke-opacity="0.45"/><text x="430" y="366" text-anchor="middle" font-size="15" font-weight="800" fill="#fff">d</text>
<text x="330" y="90" text-anchor="middle" font-size="13" font-weight="700" fill="#15803d">från modern</text>
<text x="430" y="90" text-anchor="middle" font-size="13" font-weight="700" fill="#15803d">från fadern</text>
<line x1="304" y1="165" x2="250" y2="165" stroke="#334155" stroke-width="1.5"/>
<text x="244" y="160" text-anchor="end" font-size="12.5" font-weight="700" fill="#334155">Samma gen,</text>
<text x="244" y="177" text-anchor="end" font-size="12.5" font-weight="700" fill="#334155">samma plats (locus)</text>
<line x1="456" y1="165" x2="522" y2="165" stroke="#334155" stroke-width="1.5"/>
<text x="528" y="161" font-size="12.5" font-weight="700" fill="#166534">Olika alleler: A och a</text>
<text x="528" y="178" font-size="11.5" fill="#64748b">– varianter av samma gen</text>
<line x1="456" y1="300" x2="522" y2="300" stroke="#334155" stroke-width="1.5"/>
<text x="528" y="296" font-size="12.5" font-weight="700" fill="#b45309">Lika alleler: B och B</text>
<text x="528" y="313" font-size="11.5" fill="#64748b">– homozygot för denna gen</text>
<line x1="314" y1="250" x2="250" y2="250" stroke="#334155" stroke-width="1.5"/>
<text x="244" y="246" text-anchor="end" font-size="12" font-weight="700" fill="#334155">Centromer</text>
<text x="244" y="262" text-anchor="end" font-size="11" fill="#64748b">– binder ihop armarna</text>
<text x="380" y="456" text-anchor="middle" font-size="12.5" fill="#3f6b4e">Du har 23 sådana par = 46 kromosomer: 22 par autosomer + 1 par könskromosomer (XX eller XY).</text>
</svg>