<svg viewBox="0 0 680 520" xmlns="http://www.w3.org/2000/svg" font-family="system-ui,-apple-system,Segoe UI,Arial,sans-serif" role="img" aria-label="Karyotyp: 23 kromosompar, autosomer 1-22 och könskromosomer">
<rect width="680" height="520" rx="16" fill="#ffffff"/>
<text x="340" y="34" text-anchor="middle" font-size="23" font-weight="800" fill="#166534">Karyotyp – 46 kromosomer (23 par)</text>
<text x="28" y="64" font-size="15" font-weight="700" fill="#15803d">Autosomer – par 1 till 22</text>
<path d="M 48.5,83.8 Q 48.5,78.0 54.4,78.0 L 55.6,78.0 Q 61.5,78.0 61.5,83.8 L 61.5,112.0 C 61.5,113.0 58.9,113.0 58.9,115.0 C 58.9,117.0 61.5,117.0 61.5,118.0 L 61.5,146.2 Q 61.5,152.0 55.6,152.0 L 54.4,152.0 Q 48.5,152.0 48.5,146.2 L 48.5,118.0 C 48.5,117.0 51.1,117.0 51.1,115.0 C 51.1,113.0 48.5,113.0 48.5,112.0 Z" fill="#d7dade" stroke="#8a9098" stroke-width="1.2"/><rect x="49.7" y="89.2" width="10.6" height="2.1" fill="#6b7178" opacity="0.85"/><rect x="49.7" y="134.3" width="10.6" height="3.1" fill="#6b7178" opacity="0.85"/><rect x="49.7" y="90.6" width="10.6" height="2.6" fill="#b6bbc0" opacity="0.85"/><rect x="49.7" y="97.2" width="10.6" height="3.1" fill="#b6bbc0" opacity="0.85"/><rect x="49.7" y="131.5" width="10.6" height="2.8" fill="#b6bbc0" opacity="0.85"/><ellipse cx="55.0" cy="115.0" rx="3.9" ry="1.8" fill="#eef1f3" stroke="#aab0b6" stroke-width="0.6"/><path d="M 66.5,83.8 Q 66.5,78.0 72.3,78.0 L 73.7,78.0 Q 79.5,78.0 79.5,83.8 L 79.5,112.0 C 79.5,113.0 76.9,113.0 76.9,115.0 C 76.9,117.0 79.5,117.0 79.5,118.0 L 79.5,146.2 Q 79.5,152.0 73.7,152.0 L 72.3,152.0 Q 66.5,152.0 66.5,146.2 L 66.5,118.0 C 66.5,117.0 69.1,117.0 69.1,115.0 C 69.1,113.0 66.5,113.0 66.5,112.0 Z" fill="#d7dade" stroke="#8a9098" stroke-width="1.2"/><rect x="67.7" y="89.2" width="10.6" height="2.1" fill="#6b7178" opacity="0.85"/><rect x="67.7" y="134.3" width="10.6" height="3.1" fill="#6b7178" opacity="0.85"/><rect x="67.7" y="90.6" width="10.6" height="2.6" fill="#b6bbc0" opacity="0.85"/><rect x="67.7" y="97.2" width="10.6" height="3.1" fill="#b6bbc0" opacity="0.85"/><rect x="67.7" y="131.5" width="10.6" height="2.8" fill="#b6bbc0" opacity="0.85"/><ellipse cx="73.0" cy="115.0" rx="3.9" ry="1.8" fill="#eef1f3" stroke="#aab0b6" stroke-width="0.6"/><text x="64.0" y="166.0" text-anchor="middle" font-size="13" font-weight="700" fill="#334155">1</text><path d="M 116.5,83.8 Q 116.5,78.0 122.3,78.0 L 123.7,78.0 Q 129.5,78.0 129.5,83.8 L 129.5,102.4 C 129.5,103.3 126.9,103.3 126.9,105.3 C 126.9,107.3 129.5,107.3 129.5,108.1 L 129.5,143.9 Q 129.5,149.8 123.7,149.8 L 122.3,149.8 Q 116.5,149.8 116.5,143.9 L 116.5,108.1 C 116.5,107.3 119.1,107.3 119.1,105.3 C 119.1,103.3 116.5,103.3 116.5,102.4 Z" fill="#d7dade" stroke="#8a9098" stroke-width="1.2"/><rect x="117.7" y="112.9" width="10.6" height="2.2" fill="#6b7178" opacity="0.85"/><rect x="117.7" y="138.3" width="10.6" height="2.4" fill="#9aa0a6" opacity="0.85"/><rect x="117.7" y="87.4" width="10.6" height="2.4" fill="#6b7178" opacity="0.85"/><rect x="117.7" y="123.7" width="10.6" height="2.6" fill="#b6bbc0" opacity="0.85"/><ellipse cx="123.0" cy="105.3" rx="3.9" ry="1.8" fill="#eef1f3" stroke="#aab0b6" stroke-width="0.6"/><path d="M 134.5,83.8 Q 134.5,78.0 140.3,78.0 L 141.7,78.0 Q 147.5,78.0 147.5,83.8 L 147.5,102.4 C 147.5,103.3 144.9,103.3 144.9,105.3 C 144.9,107.3 147.5,107.3 147.5,108.1 L 147.5,143.9 Q 147.5,149.8 141.7,149.8 L 140.3,149.8 Q 134.5,149.8 134.5,143.9 L 134.5,108.1 C 134.5,107.3 137.1,107.3 137.1,105.3 C 137.1,103.3 134.5,103.3 134.5,102.4 Z" fill="#d7dade" stroke="#8a9098" stroke-width="1.2"/><rect x="135.7" y="112.9" width="10.6" height="2.2" fill="#6b7178" opacity="0.85"/><rect x="135.7" y="138.3" width="10.6" height="2.4" fill="#9aa0a6" opacity="0.85"/><rect x="135.7" y="87.4" width="10.6" height="2.4" fill="#6b7178" opacity="0.85"/><rect x="135.7" y="123.7" width="10.6" height="2.6" fill="#b6bbc0" opacity="0.85"/><ellipse cx="141.0" cy="105.3" rx="3.9" ry="1.8" fill="#eef1f3" stroke="#aab0b6" stroke-width="0.6"/><text x="132.0" y="166.0" text-anchor="middle" font-size="13" font-weight="700" fill="#334155">2</text><path d="M 184.5,83.8 Q 184.5,78.0 190.3,78.0 L 191.7,78.0 Q 197.5,78.0 197.5,83.8 L 197.5,102.9 C 197.5,103.2 194.9,103.2 194.9,105.2 C 194.9,107.2 197.5,107.2 197.5,107.6 L 197.5,131.3 Q 197.5,137.2 191.7,137.2 L 190.3,137.2 Q 184.5,137.2 184.5,131.3 L 184.5,107.6 C 184.5,107.2 187.1,107.2 187.1,105.2 C 187.1,103.2 184.5,103.2 184.5,102.9 Z" fill="#d7dade" stroke="#8a9098" stroke-width="1.2"/><rect x="185.7" y="118.9" width="10.6" height="2.1" fill="#6b7178" opacity="0.85"/><rect x="185.7" y="125.1" width="10.6" height="2.7" fill="#b6bbc0" opacity="0.85"/><rect x="185.7" y="86.8" width="10.6" height="3.0" fill="#b6bbc0" opacity="0.85"/><ellipse cx="191.0" cy="105.2" rx="3.9" ry="1.8" fill="#eef1f3" stroke="#aab0b6" stroke-width="0.6"/><path d="M 202.5,83.8 Q 202.5,78.0 208.3,78.0 L 209.7,78.0 Q 215.5,78.0 215.5,83.8 L 215.5,102.9 C 215.5,103.2 212.9,103.2 212.9,105.2 C 212.9,107.2 215.5,107.2 215.5,107.6 L 215.5,131.3 Q 215.5,137.2 209.7,137.2 L 208.3,137.2 Q 202.5,137.2 202.5,131.3 L 202.5,107.6 C 202.5,107.2 205.1,107.2 205.1,105.2 C 205.1,103.2 202.5,103.2 202.5,102.9 Z" fill="#d7dade" stroke="#8a9098" stroke-width="1.2"/><rect x="203.7" y="118.9" width="10.6" height="2.1" fill="#6b7178" opacity="0.85"/><rect x="203.7" y="125.1" width="10.6" height="2.7" fill="#b6bbc0" opacity="0.85"/><rect x="203.7" y="86.8" width="10.6" height="3.0" fill="#b6bbc0" opacity="0.85"/><ellipse cx="209.0" cy="105.2" rx="3.9" ry="1.8" fill="#eef1f3" stroke="#aab0b6" stroke-width="0.6"/><text x="200.0" y="166.0" text-anchor="middle" font-size="13" font-weight="700" fill="#334155">3</text><path d="M 252.5,83.8 Q 252.5,78.0 258.4,78.0 L 259.6,78.0 Q 265.5,78.0 265.5,83.8 L 265.5,91.1 C 265.5,91.4 262.9,91.4 262.9,93.4 C 262.9,95.4 265.5,95.4 265.5,95.7 L 265.5,129.1 Q 265.5,135.0 259.6,135.0 L 258.4,135.0 Q 252.5,135.0 252.5,129.1 L 252.5,95.7 C 252.5,95.4 255.1,95.4 255.1,93.4 C 255.1,91.4 252.5,91.4 252.5,91.1 Z" fill="#d7dade" stroke="#8a9098" stroke-width="1.2"/><rect x="253.7" y="85.7" width="10.6" height="2.7" fill="#6b7178" opacity="0.85"/><rect x="253.7" y="120.4" width="10.6" height="3.1" fill="#b6bbc0" opacity="0.85"/><rect x="253.7" y="118.5" width="10.6" height="3.1" fill="#9aa0a6" opacity="0.85"/><rect x="253.7" y="125.2" width="10.6" height="2.3" fill="#9aa0a6" opacity="0.85"/><ellipse cx="259.0" cy="93.4" rx="3.9" ry="1.8" fill="#eef1f3" stroke="#aab0b6" stroke-width="0.6"/><path d="M 270.5,83.8 Q 270.5,78.0 276.4,78.0 L 277.6,78.0 Q 283.5,78.0 283.5,83.8 L 283.5,91.1 C 283.5,91.4 280.9,91.4 280.9,93.4 C 280.9,95.4 283.5,95.4 283.5,95.7 L 283.5,129.1 Q 283.5,135.0 277.6,135.0 L 276.4,135.0 Q 270.5,135.0 270.5,129.1 L 270.5,95.7 C 270.5,95.4 273.1,95.4 273.1,93.4 C 273.1,91.4 270.5,91.4 270.5,91.1 Z" fill="#d7dade" stroke="#8a9098" stroke-width="1.2"/><rect x="271.7" y="85.7" width="10.6" height="2.7" fill="#6b7178" opacity="0.85"/><rect x="271.7" y="120.4" width="10.6" height="3.1" fill="#b6bbc0" opacity="0.85"/><rect x="271.7" y="118.5" width="10.6" height="3.1" fill="#9aa0a6" opacity="0.85"/><rect x="271.7" y="125.2" width="10.6" height="2.3" fill="#9aa0a6" opacity="0.85"/><ellipse cx="277.0" cy="93.4" rx="3.9" ry="1.8" fill="#eef1f3" stroke="#aab0b6" stroke-width="0.6"/><text x="268.0" y="166.0" text-anchor="middle" font-size="13" font-weight="700" fill="#334155">4</text><path d="M 320.5,83.8 Q 320.5,78.0 326.4,78.0 L 327.6,78.0 Q 333.5,78.0 333.5,83.8 L 333.5,90.4 C 333.5,90.6 330.9,90.6 330.9,92.6 C 330.9,94.6 333.5,94.6 333.5,94.7 L 333.5,126.2 Q 333.5,132.0 327.6,132.0 L 326.4,132.0 Q 320.5,132.0 320.5,126.2 L 320.5,94.7 C 320.5,94.6 323.1,94.6 323.1,92.6 C 323.1,90.6 320.5,90.6 320.5,90.4 Z" fill="#d7dade" stroke="#8a9098" stroke-width="1.2"/><rect x="321.7" y="103.6" width="10.6" height="2.6" fill="#b6bbc0" opacity="0.85"/><rect x="321.7" y="86.0" width="10.6" height="2.9" fill="#b6bbc0" opacity="0.85"/><rect x="321.7" y="117.3" width="10.6" height="2.3" fill="#9aa0a6" opacity="0.85"/><rect x="321.7" y="106.6" width="10.6" height="3.4" fill="#9aa0a6" opacity="0.85"/><ellipse cx="327.0" cy="92.6" rx="3.9" ry="1.8" fill="#eef1f3" stroke="#aab0b6" stroke-width="0.6"/><path d="M 338.5,83.8 Q 338.5,78.0 344.4,78.0 L 345.6,78.0 Q 351.5,78.0 351.5,83.8 L 351.5,90.4 C 351.5,90.6 348.9,90.6 348.9,92.6 C 348.9,94.6 351.5,94.6 351.5,94.7 L 351.5,126.2 Q 351.5,132.0 345.6,132.0 L 344.4,132.0 Q 338.5,132.0 338.5,126.2 L 338.5,94.7 C 338.5,94.6 341.1,94.6 341.1,92.6 C 341.1,90.6 338.5,90.6 338.5,90.4 Z" fill="#d7dade" stroke="#8a9098" stroke-width="1.2"/><rect x="339.7" y="103.6" width="10.6" height="2.6" fill="#b6bbc0" opacity="0.85"/><rect x="339.7" y="86.0" width="10.6" height="2.9" fill="#b6bbc0" opacity="0.85"/><rect x="339.7" y="117.3" width="10.6" height="2.3" fill="#9aa0a6" opacity="0.85"/><rect x="339.7" y="106.6" width="10.6" height="3.4" fill="#9aa0a6" opacity="0.85"/><ellipse cx="345.0" cy="92.6" rx="3.9" ry="1.8" fill="#eef1f3" stroke="#aab0b6" stroke-width="0.6"/><text x="336.0" y="166.0" text-anchor="middle" font-size="13" font-weight="700" fill="#334155">5</text><path d="M 388.5,83.8 Q 388.5,78.0 394.4,78.0 L 395.6,78.0 Q 401.5,78.0 401.5,83.8 L 401.5,94.3 C 401.5,94.4 398.9,94.4 398.9,96.4 C 398.9,98.4 401.5,98.4 401.5,98.4 L 401.5,123.2 Q 401.5,129.1 395.6,129.1 L 394.4,129.1 Q 388.5,129.1 388.5,123.2 L 388.5,98.4 C 388.5,98.4 391.1,98.4 391.1,96.4 C 391.1,94.4 388.5,94.4 388.5,94.3 Z" fill="#d7dade" stroke="#8a9098" stroke-width="1.2"/><rect x="389.7" y="109.7" width="10.6" height="2.5" fill="#b6bbc0" opacity="0.85"/><rect x="389.7" y="114.4" width="10.6" height="3.0" fill="#9aa0a6" opacity="0.85"/><rect x="389.7" y="102.8" width="10.6" height="2.9" fill="#b6bbc0" opacity="0.85"/><ellipse cx="395.0" cy="96.4" rx="3.9" ry="1.8" fill="#eef1f3" stroke="#aab0b6" stroke-width="0.6"/><path d="M 406.5,83.8 Q 406.5,78.0 412.4,78.0 L 413.6,78.0 Q 419.5,78.0 419.5,83.8 L 419.5,94.3 C 419.5,94.4 416.9,94.4 416.9,96.4 C 416.9,98.4 419.5,98.4 419.5,98.4 L 419.5,123.2 Q 419.5,129.1 413.6,129.1 L 412.4,129.1 Q 406.5,129.1 406.5,123.2 L 406.5,98.4 C 406.5,98.4 409.1,98.4 409.1,96.4 C 409.1,94.4 406.5,94.4 406.5,94.3 Z" fill="#d7dade" stroke="#8a9098" stroke-width="1.2"/><rect x="407.7" y="109.7" width="10.6" height="2.5" fill="#b6bbc0" opacity="0.85"/><rect x="407.7" y="114.4" width="10.6" height="3.0" fill="#9aa0a6" opacity="0.85"/><rect x="407.7" y="102.8" width="10.6" height="2.9" fill="#b6bbc0" opacity="0.85"/><ellipse cx="413.0" cy="96.4" rx="3.9" ry="1.8" fill="#eef1f3" stroke="#aab0b6" stroke-width="0.6"/><text x="404.0" y="166.0" text-anchor="middle" font-size="13" font-weight="700" fill="#334155">6</text><path d="M 456.5,83.8 Q 456.5,78.0 462.4,78.0 L 463.6,78.0 Q 469.5,78.0 469.5,83.8 L 469.5,94.5 C 469.5,94.5 466.9,94.5 466.9,96.5 C 466.9,98.5 469.5,98.5 469.5,98.5 L 469.5,119.5 Q 469.5,125.4 463.6,125.4 L 462.4,125.4 Q 456.5,125.4 456.5,119.5 L 456.5,98.5 C 456.5,98.5 459.1,98.5 459.1,96.5 C 459.1,94.5 456.5,94.5 456.5,94.5 Z" fill="#d7dade" stroke="#8a9098" stroke-width="1.2"/><rect x="457.7" y="85.9" width="10.6" height="2.5" fill="#9aa0a6" opacity="0.85"/><ellipse cx="463.0" cy="96.5" rx="3.9" ry="1.8" fill="#eef1f3" stroke="#aab0b6" stroke-width="0.6"/><path d="M 474.5,83.8 Q 474.5,78.0 480.4,78.0 L 481.6,78.0 Q 487.5,78.0 487.5,83.8 L 487.5,94.5 C 487.5,94.5 484.9,94.5 484.9,96.5 C 484.9,98.5 487.5,98.5 487.5,98.5 L 487.5,119.5 Q 487.5,125.4 481.6,125.4 L 480.4,125.4 Q 474.5,125.4 474.5,119.5 L 474.5,98.5 C 474.5,98.5 477.1,98.5 477.1,96.5 C 477.1,94.5 474.5,94.5 474.5,94.5 Z" fill="#d7dade" stroke="#8a9098" stroke-width="1.2"/><rect x="475.7" y="85.9" width="10.6" height="2.5" fill="#9aa0a6" opacity="0.85"/><ellipse cx="481.0" cy="96.5" rx="3.9" ry="1.8" fill="#eef1f3" stroke="#aab0b6" stroke-width="0.6"/><text x="472.0" y="166.0" text-anchor="middle" font-size="13" font-weight="700" fill="#334155">7</text><path d="M 524.5,83.8 Q 524.5,78.0 530.4,78.0 L 531.6,78.0 Q 537.5,78.0 537.5,83.8 L 537.5,90.8 C 537.5,90.8 534.9,90.8 534.9,92.8 C 534.9,94.8 537.5,94.8 537.5,94.8 L 537.5,115.8 Q 537.5,121.7 531.6,121.7 L 530.4,121.7 Q 524.5,121.7 524.5,115.8 L 524.5,94.8 C 524.5,94.8 527.1,94.8 527.1,92.8 C 527.1,90.8 524.5,90.8 524.5,90.8 Z" fill="#d7dade" stroke="#8a9098" stroke-width="1.2"/><rect x="525.7" y="99.4" width="10.6" height="3.2" fill="#b6bbc0" opacity="0.85"/><rect x="525.7" y="104.4" width="10.6" height="2.2" fill="#6b7178" opacity="0.85"/><ellipse cx="531.0" cy="92.8" rx="3.9" ry="1.8" fill="#eef1f3" stroke="#aab0b6" stroke-width="0.6"/><path d="M 542.5,83.8 Q 542.5,78.0 548.4,78.0 L 549.6,78.0 Q 555.5,78.0 555.5,83.8 L 555.5,90.8 C 555.5,90.8 552.9,90.8 552.9,92.8 C 552.9,94.8 555.5,94.8 555.5,94.8 L 555.5,115.8 Q 555.5,121.7 549.6,121.7 L 548.4,121.7 Q 542.5,121.7 542.5,115.8 L 542.5,94.8 C 542.5,94.8 545.1,94.8 545.1,92.8 C 545.1,90.8 542.5,90.8 542.5,90.8 Z" fill="#d7dade" stroke="#8a9098" stroke-width="1.2"/><rect x="543.7" y="99.4" width="10.6" height="3.2" fill="#b6bbc0" opacity="0.85"/><rect x="543.7" y="104.4" width="10.6" height="2.2" fill="#6b7178" opacity="0.85"/><ellipse cx="549.0" cy="92.8" rx="3.9" ry="1.8" fill="#eef1f3" stroke="#aab0b6" stroke-width="0.6"/><text x="540.0" y="166.0" text-anchor="middle" font-size="13" font-weight="700" fill="#334155">8</text><path d="M 592.5,83.8 Q 592.5,78.0 598.4,78.0 L 599.6,78.0 Q 605.5,78.0 605.5,83.8 L 605.5,90.8 C 605.5,90.8 602.9,90.8 602.9,92.8 C 602.9,94.8 605.5,94.8 605.5,94.8 L 605.5,114.3 Q 605.5,120.2 599.6,120.2 L 598.4,120.2 Q 592.5,120.2 592.5,114.3 L 592.5,94.8 C 592.5,94.8 595.1,94.8 595.1,92.8 C 595.1,90.8 592.5,90.8 592.5,90.8 Z" fill="#d7dade" stroke="#8a9098" stroke-width="1.2"/><rect x="593.7" y="103.1" width="10.6" height="3.0" fill="#9aa0a6" opacity="0.85"/><rect x="593.7" y="107.1" width="10.6" height="3.1" fill="#9aa0a6" opacity="0.85"/><ellipse cx="599.0" cy="92.8" rx="3.9" ry="1.8" fill="#eef1f3" stroke="#aab0b6" stroke-width="0.6"/><path d="M 610.5,83.8 Q 610.5,78.0 616.4,78.0 L 617.6,78.0 Q 623.5,78.0 623.5,83.8 L 623.5,90.8 C 623.5,90.8 620.9,90.8 620.9,92.8 C 620.9,94.8 623.5,94.8 623.5,94.8 L 623.5,114.3 Q 623.5,120.2 617.6,120.2 L 616.4,120.2 Q 610.5,120.2 610.5,114.3 L 610.5,94.8 C 610.5,94.8 613.1,94.8 613.1,92.8 C 613.1,90.8 610.5,90.8 610.5,90.8 Z" fill="#d7dade" stroke="#8a9098" stroke-width="1.2"/><rect x="611.7" y="103.1" width="10.6" height="3.0" fill="#9aa0a6" opacity="0.85"/><rect x="611.7" y="107.1" width="10.6" height="3.1" fill="#9aa0a6" opacity="0.85"/><ellipse cx="617.0" cy="92.8" rx="3.9" ry="1.8" fill="#eef1f3" stroke="#aab0b6" stroke-width="0.6"/><text x="608.0" y="166.0" text-anchor="middle" font-size="13" font-weight="700" fill="#334155">9</text>
<path d="M 48.5,205.8 Q 48.5,200.0 54.4,200.0 L 55.6,200.0 Q 61.5,200.0 61.5,205.8 L 61.5,211.8 C 61.5,211.8 58.9,211.8 58.9,213.8 C 58.9,215.8 61.5,215.8 61.5,215.8 L 61.5,234.8 Q 61.5,240.7 55.6,240.7 L 54.4,240.7 Q 48.5,240.7 48.5,234.8 L 48.5,215.8 C 48.5,215.8 51.1,215.8 51.1,213.8 C 51.1,211.8 48.5,211.8 48.5,211.8 Z" fill="#d7dade" stroke="#8a9098" stroke-width="1.2"/><rect x="49.7" y="209.5" width="10.6" height="3.1" fill="#6b7178" opacity="0.85"/><ellipse cx="55.0" cy="213.8" rx="3.9" ry="1.8" fill="#eef1f3" stroke="#aab0b6" stroke-width="0.6"/><path d="M 66.5,205.8 Q 66.5,200.0 72.3,200.0 L 73.7,200.0 Q 79.5,200.0 79.5,205.8 L 79.5,211.8 C 79.5,211.8 76.9,211.8 76.9,213.8 C 76.9,215.8 79.5,215.8 79.5,215.8 L 79.5,234.8 Q 79.5,240.7 73.7,240.7 L 72.3,240.7 Q 66.5,240.7 66.5,234.8 L 66.5,215.8 C 66.5,215.8 69.1,215.8 69.1,213.8 C 69.1,211.8 66.5,211.8 66.5,211.8 Z" fill="#d7dade" stroke="#8a9098" stroke-width="1.2"/><rect x="67.7" y="209.5" width="10.6" height="3.1" fill="#6b7178" opacity="0.85"/><ellipse cx="73.0" cy="213.8" rx="3.9" ry="1.8" fill="#eef1f3" stroke="#aab0b6" stroke-width="0.6"/><text x="64.0" y="288.0" text-anchor="middle" font-size="13" font-weight="700" fill="#334155">10</text><path d="M 116.5,205.8 Q 116.5,200.0 122.3,200.0 L 123.7,200.0 Q 129.5,200.0 129.5,205.8 L 129.5,214.0 C 129.5,214.0 126.9,214.0 126.9,216.0 C 126.9,218.0 129.5,218.0 129.5,218.0 L 129.5,234.1 Q 129.5,240.0 123.7,240.0 L 122.3,240.0 Q 116.5,240.0 116.5,234.1 L 116.5,218.0 C 116.5,218.0 119.1,218.0 119.1,216.0 C 119.1,214.0 116.5,214.0 116.5,214.0 Z" fill="#d7dade" stroke="#8a9098" stroke-width="1.2"/><rect x="117.7" y="221.6" width="10.6" height="2.2" fill="#9aa0a6" opacity="0.85"/><rect x="117.7" y="224.0" width="10.6" height="2.2" fill="#9aa0a6" opacity="0.85"/><rect x="117.7" y="220.3" width="10.6" height="3.3" fill="#b6bbc0" opacity="0.85"/><ellipse cx="123.0" cy="216.0" rx="3.9" ry="1.8" fill="#eef1f3" stroke="#aab0b6" stroke-width="0.6"/><path d="M 134.5,205.8 Q 134.5,200.0 140.3,200.0 L 141.7,200.0 Q 147.5,200.0 147.5,205.8 L 147.5,214.0 C 147.5,214.0 144.9,214.0 144.9,216.0 C 144.9,218.0 147.5,218.0 147.5,218.0 L 147.5,234.1 Q 147.5,240.0 141.7,240.0 L 140.3,240.0 Q 134.5,240.0 134.5,234.1 L 134.5,218.0 C 134.5,218.0 137.1,218.0 137.1,216.0 C 137.1,214.0 134.5,214.0 134.5,214.0 Z" fill="#d7dade" stroke="#8a9098" stroke-width="1.2"/><rect x="135.7" y="221.6" width="10.6" height="2.2" fill="#9aa0a6" opacity="0.85"/><rect x="135.7" y="224.0" width="10.6" height="2.2" fill="#9aa0a6" opacity="0.85"/><rect x="135.7" y="220.3" width="10.6" height="3.3" fill="#b6bbc0" opacity="0.85"/><ellipse cx="141.0" cy="216.0" rx="3.9" ry="1.8" fill="#eef1f3" stroke="#aab0b6" stroke-width="0.6"/><text x="132.0" y="288.0" text-anchor="middle" font-size="13" font-weight="700" fill="#334155">11</text><path d="M 184.5,205.8 Q 184.5,200.0 190.3,200.0 L 191.7,200.0 Q 197.5,200.0 197.5,205.8 L 197.5,208.8 C 197.5,208.8 194.9,208.8 194.9,210.8 C 194.9,212.8 197.5,212.8 197.5,212.8 L 197.5,234.1 Q 197.5,240.0 191.7,240.0 L 190.3,240.0 Q 184.5,240.0 184.5,234.1 L 184.5,212.8 C 184.5,212.8 187.1,212.8 187.1,210.8 C 187.1,208.8 184.5,208.8 184.5,208.8 Z" fill="#d7dade" stroke="#8a9098" stroke-width="1.2"/><rect x="185.7" y="220.7" width="10.6" height="3.4" fill="#9aa0a6" opacity="0.85"/><rect x="185.7" y="215.2" width="10.6" height="2.8" fill="#b6bbc0" opacity="0.85"/><ellipse cx="191.0" cy="210.8" rx="3.9" ry="1.8" fill="#eef1f3" stroke="#aab0b6" stroke-width="0.6"/><path d="M 202.5,205.8 Q 202.5,200.0 208.3,200.0 L 209.7,200.0 Q 215.5,200.0 215.5,205.8 L 215.5,208.8 C 215.5,208.8 212.9,208.8 212.9,210.8 C 212.9,212.8 215.5,212.8 215.5,212.8 L 215.5,234.1 Q 215.5,240.0 209.7,240.0 L 208.3,240.0 Q 202.5,240.0 202.5,234.1 L 202.5,212.8 C 202.5,212.8 205.1,212.8 205.1,210.8 C 205.1,208.8 202.5,208.8 202.5,208.8 Z" fill="#d7dade" stroke="#8a9098" stroke-width="1.2"/><rect x="203.7" y="220.7" width="10.6" height="3.4" fill="#9aa0a6" opacity="0.85"/><rect x="203.7" y="215.2" width="10.6" height="2.8" fill="#b6bbc0" opacity="0.85"/><ellipse cx="209.0" cy="210.8" rx="3.9" ry="1.8" fill="#eef1f3" stroke="#aab0b6" stroke-width="0.6"/><text x="200.0" y="288.0" text-anchor="middle" font-size="13" font-weight="700" fill="#334155">12</text><path d="M 252.5,205.8 Q 252.5,200.0 258.4,200.0 L 259.6,200.0 Q 265.5,200.0 265.5,205.8 L 265.5,203.1 C 265.5,203.1 262.9,203.1 262.9,205.1 C 262.9,207.1 265.5,207.1 265.5,207.1 L 265.5,228.2 Q 265.5,234.0 259.6,234.0 L 258.4,234.0 Q 252.5,234.0 252.5,228.2 L 252.5,207.1 C 252.5,207.1 255.1,207.1 255.1,205.1 C 255.1,203.1 252.5,203.1 252.5,203.1 Z" fill="#d7dade" stroke="#8a9098" stroke-width="1.2"/><rect x="253.7" y="224.4" width="10.6" height="3.3" fill="#6b7178" opacity="0.85"/><rect x="253.7" y="224.0" width="10.6" height="2.5" fill="#9aa0a6" opacity="0.85"/><ellipse cx="259.0" cy="205.1" rx="3.9" ry="1.8" fill="#eef1f3" stroke="#aab0b6" stroke-width="0.6"/><path d="M 270.5,205.8 Q 270.5,200.0 276.4,200.0 L 277.6,200.0 Q 283.5,200.0 283.5,205.8 L 283.5,203.1 C 283.5,203.1 280.9,203.1 280.9,205.1 C 280.9,207.1 283.5,207.1 283.5,207.1 L 283.5,228.2 Q 283.5,234.0 277.6,234.0 L 276.4,234.0 Q 270.5,234.0 270.5,228.2 L 270.5,207.1 C 270.5,207.1 273.1,207.1 273.1,205.1 C 273.1,203.1 270.5,203.1 270.5,203.1 Z" fill="#d7dade" stroke="#8a9098" stroke-width="1.2"/><rect x="271.7" y="224.4" width="10.6" height="3.3" fill="#6b7178" opacity="0.85"/><rect x="271.7" y="224.0" width="10.6" height="2.5" fill="#9aa0a6" opacity="0.85"/><ellipse cx="277.0" cy="205.1" rx="3.9" ry="1.8" fill="#eef1f3" stroke="#aab0b6" stroke-width="0.6"/><text x="268.0" y="288.0" text-anchor="middle" font-size="13" font-weight="700" fill="#334155">13</text><path d="M 320.5,205.7 Q 320.5,200.0 326.2,200.0 L 327.8,200.0 Q 333.5,200.0 333.5,205.7 L 333.5,202.8 C 333.5,202.8 330.9,202.8 330.9,204.8 C 330.9,206.8 333.5,206.8 333.5,206.8 L 333.5,226.1 Q 333.5,231.8 327.8,231.8 L 326.2,231.8 Q 320.5,231.8 320.5,226.1 L 320.5,206.8 C 320.5,206.8 323.1,206.8 323.1,204.8 C 323.1,202.8 320.5,202.8 320.5,202.8 Z" fill="#d7dade" stroke="#8a9098" stroke-width="1.2"/><rect x="321.7" y="219.2" width="10.6" height="2.4" fill="#b6bbc0" opacity="0.85"/><rect x="321.7" y="212.5" width="10.6" height="2.5" fill="#b6bbc0" opacity="0.85"/><ellipse cx="327.0" cy="204.8" rx="3.9" ry="1.8" fill="#eef1f3" stroke="#aab0b6" stroke-width="0.6"/><path d="M 338.5,205.7 Q 338.5,200.0 344.2,200.0 L 345.8,200.0 Q 351.5,200.0 351.5,205.7 L 351.5,202.8 C 351.5,202.8 348.9,202.8 348.9,204.8 C 348.9,206.8 351.5,206.8 351.5,206.8 L 351.5,226.1 Q 351.5,231.8 345.8,231.8 L 344.2,231.8 Q 338.5,231.8 338.5,226.1 L 338.5,206.8 C 338.5,206.8 341.1,206.8 341.1,204.8 C 341.1,202.8 338.5,202.8 338.5,202.8 Z" fill="#d7dade" stroke="#8a9098" stroke-width="1.2"/><rect x="339.7" y="219.2" width="10.6" height="2.4" fill="#b6bbc0" opacity="0.85"/><rect x="339.7" y="212.5" width="10.6" height="2.5" fill="#b6bbc0" opacity="0.85"/><ellipse cx="345.0" cy="204.8" rx="3.9" ry="1.8" fill="#eef1f3" stroke="#aab0b6" stroke-width="0.6"/><text x="336.0" y="288.0" text-anchor="middle" font-size="13" font-weight="700" fill="#334155">14</text><path d="M 388.5,205.5 Q 388.5,200.0 394.0,200.0 L 396.0,200.0 Q 401.5,200.0 401.5,205.5 L 401.5,202.9 C 401.5,202.9 398.9,202.9 398.9,204.9 C 398.9,206.9 401.5,206.9 401.5,206.9 L 401.5,224.9 Q 401.5,230.3 396.0,230.3 L 394.0,230.3 Q 388.5,230.3 388.5,224.9 L 388.5,206.9 C 388.5,206.9 391.1,206.9 391.1,204.9 C 391.1,202.9 388.5,202.9 388.5,202.9 Z" fill="#d7dade" stroke="#8a9098" stroke-width="1.2"/><rect x="389.7" y="217.7" width="10.6" height="2.5" fill="#6b7178" opacity="0.85"/><rect x="389.7" y="209.5" width="10.6" height="3.3" fill="#9aa0a6" opacity="0.85"/><ellipse cx="395.0" cy="204.9" rx="3.9" ry="1.8" fill="#eef1f3" stroke="#aab0b6" stroke-width="0.6"/><path d="M 406.5,205.5 Q 406.5,200.0 412.0,200.0 L 414.0,200.0 Q 419.5,200.0 419.5,205.5 L 419.5,202.9 C 419.5,202.9 416.9,202.9 416.9,204.9 C 416.9,206.9 419.5,206.9 419.5,206.9 L 419.5,224.9 Q 419.5,230.3 414.0,230.3 L 412.0,230.3 Q 406.5,230.3 406.5,224.9 L 406.5,206.9 C 406.5,206.9 409.1,206.9 409.1,204.9 C 409.1,202.9 406.5,202.9 406.5,202.9 Z" fill="#d7dade" stroke="#8a9098" stroke-width="1.2"/><rect x="407.7" y="217.7" width="10.6" height="2.5" fill="#6b7178" opacity="0.85"/><rect x="407.7" y="209.5" width="10.6" height="3.3" fill="#9aa0a6" opacity="0.85"/><ellipse cx="413.0" cy="204.9" rx="3.9" ry="1.8" fill="#eef1f3" stroke="#aab0b6" stroke-width="0.6"/><text x="404.0" y="288.0" text-anchor="middle" font-size="13" font-weight="700" fill="#334155">15</text><path d="M 456.5,204.8 Q 456.5,200.0 461.3,200.0 L 464.7,200.0 Q 469.5,200.0 469.5,204.8 L 469.5,208.7 C 469.5,208.7 466.9,208.7 466.9,210.7 C 466.9,212.7 469.5,212.7 469.5,212.7 L 469.5,221.8 Q 469.5,226.6 464.7,226.6 L 461.3,226.6 Q 456.5,226.6 456.5,221.8 L 456.5,212.7 C 456.5,212.7 459.1,212.7 459.1,210.7 C 459.1,208.7 456.5,208.7 456.5,208.7 Z" fill="#d7dade" stroke="#8a9098" stroke-width="1.2"/><rect x="457.7" y="216.8" width="10.6" height="2.9" fill="#6b7178" opacity="0.85"/><ellipse cx="463.0" cy="210.7" rx="3.9" ry="1.8" fill="#eef1f3" stroke="#aab0b6" stroke-width="0.6"/><path d="M 474.5,204.8 Q 474.5,200.0 479.3,200.0 L 482.7,200.0 Q 487.5,200.0 487.5,204.8 L 487.5,208.7 C 487.5,208.7 484.9,208.7 484.9,210.7 C 484.9,212.7 487.5,212.7 487.5,212.7 L 487.5,221.8 Q 487.5,226.6 482.7,226.6 L 479.3,226.6 Q 474.5,226.6 474.5,221.8 L 474.5,212.7 C 474.5,212.7 477.1,212.7 477.1,210.7 C 477.1,208.7 474.5,208.7 474.5,208.7 Z" fill="#d7dade" stroke="#8a9098" stroke-width="1.2"/><rect x="475.7" y="216.8" width="10.6" height="2.9" fill="#6b7178" opacity="0.85"/><ellipse cx="481.0" cy="210.7" rx="3.9" ry="1.8" fill="#eef1f3" stroke="#aab0b6" stroke-width="0.6"/><text x="472.0" y="288.0" text-anchor="middle" font-size="13" font-weight="700" fill="#334155">16</text><path d="M 524.5,204.4 Q 524.5,200.0 528.9,200.0 L 533.1,200.0 Q 537.5,200.0 537.5,204.4 L 537.5,205.1 C 537.5,205.1 534.9,205.1 534.9,207.1 C 534.9,209.1 537.5,209.1 537.5,209.1 L 537.5,220.0 Q 537.5,224.4 533.1,224.4 L 528.9,224.4 Q 524.5,224.4 524.5,220.0 L 524.5,209.1 C 524.5,209.1 527.1,209.1 527.1,207.1 C 527.1,205.1 524.5,205.1 524.5,205.1 Z" fill="#d7dade" stroke="#8a9098" stroke-width="1.2"/><rect x="525.7" y="214.3" width="10.6" height="2.7" fill="#9aa0a6" opacity="0.85"/><ellipse cx="531.0" cy="207.1" rx="3.9" ry="1.8" fill="#eef1f3" stroke="#aab0b6" stroke-width="0.6"/><path d="M 542.5,204.4 Q 542.5,200.0 546.9,200.0 L 551.1,200.0 Q 555.5,200.0 555.5,204.4 L 555.5,205.1 C 555.5,205.1 552.9,205.1 552.9,207.1 C 552.9,209.1 555.5,209.1 555.5,209.1 L 555.5,220.0 Q 555.5,224.4 551.1,224.4 L 546.9,224.4 Q 542.5,224.4 542.5,220.0 L 542.5,209.1 C 542.5,209.1 545.1,209.1 545.1,207.1 C 545.1,205.1 542.5,205.1 542.5,205.1 Z" fill="#d7dade" stroke="#8a9098" stroke-width="1.2"/><rect x="543.7" y="214.3" width="10.6" height="2.7" fill="#9aa0a6" opacity="0.85"/><ellipse cx="549.0" cy="207.1" rx="3.9" ry="1.8" fill="#eef1f3" stroke="#aab0b6" stroke-width="0.6"/><text x="540.0" y="288.0" text-anchor="middle" font-size="13" font-weight="700" fill="#334155">17</text><path d="M 592.5,204.1 Q 592.5,200.0 596.6,200.0 L 601.4,200.0 Q 605.5,200.0 605.5,204.1 L 605.5,203.0 C 605.5,203.0 602.9,203.0 602.9,205.0 C 602.9,207.0 605.5,207.0 605.5,207.0 L 605.5,218.8 Q 605.5,222.9 601.4,222.9 L 596.6,222.9 Q 592.5,222.9 592.5,218.8 L 592.5,207.0 C 592.5,207.0 595.1,207.0 595.1,205.0 C 595.1,203.0 592.5,203.0 592.5,203.0 Z" fill="#d7dade" stroke="#8a9098" stroke-width="1.2"/><ellipse cx="599.0" cy="205.0" rx="3.9" ry="1.8" fill="#eef1f3" stroke="#aab0b6" stroke-width="0.6"/><path d="M 610.5,204.1 Q 610.5,200.0 614.6,200.0 L 619.4,200.0 Q 623.5,200.0 623.5,204.1 L 623.5,203.0 C 623.5,203.0 620.9,203.0 620.9,205.0 C 620.9,207.0 623.5,207.0 623.5,207.0 L 623.5,218.8 Q 623.5,222.9 619.4,222.9 L 614.6,222.9 Q 610.5,222.9 610.5,218.8 L 610.5,207.0 C 610.5,207.0 613.1,207.0 613.1,205.0 C 613.1,203.0 610.5,203.0 610.5,203.0 Z" fill="#d7dade" stroke="#8a9098" stroke-width="1.2"/><ellipse cx="617.0" cy="205.0" rx="3.9" ry="1.8" fill="#eef1f3" stroke="#aab0b6" stroke-width="0.6"/><text x="608.0" y="288.0" text-anchor="middle" font-size="13" font-weight="700" fill="#334155">18</text>
<path d="M 48.5,325.6 Q 48.5,322.0 52.1,322.0 L 57.9,322.0 Q 61.5,322.0 61.5,325.6 L 61.5,329.2 C 61.5,329.2 58.9,329.2 58.9,331.2 C 58.9,333.2 61.5,333.2 61.5,333.2 L 61.5,338.4 Q 61.5,342.0 57.9,342.0 L 52.1,342.0 Q 48.5,342.0 48.5,338.4 L 48.5,333.2 C 48.5,333.2 51.1,333.2 51.1,331.2 C 51.1,329.2 48.5,329.2 48.5,329.2 Z" fill="#d7dade" stroke="#8a9098" stroke-width="1.2"/><rect x="49.7" y="326.9" width="10.6" height="2.4" fill="#b6bbc0" opacity="0.85"/><ellipse cx="55.0" cy="331.2" rx="3.9" ry="1.8" fill="#eef1f3" stroke="#aab0b6" stroke-width="0.6"/><path d="M 66.5,325.6 Q 66.5,322.0 70.1,322.0 L 75.9,322.0 Q 79.5,322.0 79.5,325.6 L 79.5,329.2 C 79.5,329.2 76.9,329.2 76.9,331.2 C 76.9,333.2 79.5,333.2 79.5,333.2 L 79.5,338.4 Q 79.5,342.0 75.9,342.0 L 70.1,342.0 Q 66.5,342.0 66.5,338.4 L 66.5,333.2 C 66.5,333.2 69.1,333.2 69.1,331.2 C 69.1,329.2 66.5,329.2 66.5,329.2 Z" fill="#d7dade" stroke="#8a9098" stroke-width="1.2"/><rect x="67.7" y="326.9" width="10.6" height="2.4" fill="#b6bbc0" opacity="0.85"/><ellipse cx="73.0" cy="331.2" rx="3.9" ry="1.8" fill="#eef1f3" stroke="#aab0b6" stroke-width="0.6"/><text x="64.0" y="410.0" text-anchor="middle" font-size="13" font-weight="700" fill="#334155">19</text><path d="M 116.5,325.6 Q 116.5,322.0 120.1,322.0 L 125.9,322.0 Q 129.5,322.0 129.5,325.6 L 129.5,328.8 C 129.5,328.8 126.9,328.8 126.9,330.8 C 126.9,332.8 129.5,332.8 129.5,332.8 L 129.5,338.4 Q 129.5,342.0 125.9,342.0 L 120.1,342.0 Q 116.5,342.0 116.5,338.4 L 116.5,332.8 C 116.5,332.8 119.1,332.8 119.1,330.8 C 119.1,328.8 116.5,328.8 116.5,328.8 Z" fill="#d7dade" stroke="#8a9098" stroke-width="1.2"/><ellipse cx="123.0" cy="330.8" rx="3.9" ry="1.8" fill="#eef1f3" stroke="#aab0b6" stroke-width="0.6"/><path d="M 134.5,325.6 Q 134.5,322.0 138.1,322.0 L 143.9,322.0 Q 147.5,322.0 147.5,325.6 L 147.5,328.8 C 147.5,328.8 144.9,328.8 144.9,330.8 C 144.9,332.8 147.5,332.8 147.5,332.8 L 147.5,338.4 Q 147.5,342.0 143.9,342.0 L 138.1,342.0 Q 134.5,342.0 134.5,338.4 L 134.5,332.8 C 134.5,332.8 137.1,332.8 137.1,330.8 C 137.1,328.8 134.5,328.8 134.5,328.8 Z" fill="#d7dade" stroke="#8a9098" stroke-width="1.2"/><ellipse cx="141.0" cy="330.8" rx="3.9" ry="1.8" fill="#eef1f3" stroke="#aab0b6" stroke-width="0.6"/><text x="132.0" y="410.0" text-anchor="middle" font-size="13" font-weight="700" fill="#334155">20</text><path d="M 184.5,324.9 Q 184.5,322.0 187.4,322.0 L 194.6,322.0 Q 197.5,322.0 197.5,324.9 L 197.5,323.5 C 197.5,323.5 194.9,323.5 194.9,325.5 C 194.9,327.5 197.5,327.5 197.5,327.5 L 197.5,335.1 Q 197.5,338.0 194.6,338.0 L 187.4,338.0 Q 184.5,338.0 184.5,335.1 L 184.5,327.5 C 184.5,327.5 187.1,327.5 187.1,325.5 C 187.1,323.5 184.5,323.5 184.5,323.5 Z" fill="#d7dade" stroke="#8a9098" stroke-width="1.2"/><rect x="185.7" y="331.9" width="10.6" height="2.2" fill="#6b7178" opacity="0.85"/><rect x="185.7" y="329.7" width="10.6" height="2.3" fill="#9aa0a6" opacity="0.85"/><ellipse cx="191.0" cy="325.5" rx="3.9" ry="1.8" fill="#eef1f3" stroke="#aab0b6" stroke-width="0.6"/><path d="M 202.5,324.9 Q 202.5,322.0 205.4,322.0 L 212.6,322.0 Q 215.5,322.0 215.5,324.9 L 215.5,323.5 C 215.5,323.5 212.9,323.5 212.9,325.5 C 212.9,327.5 215.5,327.5 215.5,327.5 L 215.5,335.1 Q 215.5,338.0 212.6,338.0 L 205.4,338.0 Q 202.5,338.0 202.5,335.1 L 202.5,327.5 C 202.5,327.5 205.1,327.5 205.1,325.5 C 205.1,323.5 202.5,323.5 202.5,323.5 Z" fill="#d7dade" stroke="#8a9098" stroke-width="1.2"/><rect x="203.7" y="331.9" width="10.6" height="2.2" fill="#6b7178" opacity="0.85"/><rect x="203.7" y="329.7" width="10.6" height="2.3" fill="#9aa0a6" opacity="0.85"/><ellipse cx="209.0" cy="325.5" rx="3.9" ry="1.8" fill="#eef1f3" stroke="#aab0b6" stroke-width="0.6"/><text x="200.0" y="410.0" text-anchor="middle" font-size="13" font-weight="700" fill="#334155">21</text><path d="M 252.5,324.9 Q 252.5,322.0 255.4,322.0 L 262.6,322.0 Q 265.5,322.0 265.5,324.9 L 265.5,324.1 C 265.5,324.1 262.9,324.1 262.9,326.1 C 262.9,328.1 265.5,328.1 265.5,328.1 L 265.5,335.3 Q 265.5,338.3 262.6,338.3 L 255.4,338.3 Q 252.5,338.3 252.5,335.3 L 252.5,328.1 C 252.5,328.1 255.1,328.1 255.1,326.1 C 255.1,324.1 252.5,324.1 252.5,324.1 Z" fill="#d7dade" stroke="#8a9098" stroke-width="1.2"/><rect x="253.7" y="330.4" width="10.6" height="2.0" fill="#b6bbc0" opacity="0.85"/><rect x="253.7" y="330.6" width="10.6" height="3.2" fill="#6b7178" opacity="0.85"/><ellipse cx="259.0" cy="326.1" rx="3.9" ry="1.8" fill="#eef1f3" stroke="#aab0b6" stroke-width="0.6"/><path d="M 270.5,324.9 Q 270.5,322.0 273.4,322.0 L 280.6,322.0 Q 283.5,322.0 283.5,324.9 L 283.5,324.1 C 283.5,324.1 280.9,324.1 280.9,326.1 C 280.9,328.1 283.5,328.1 283.5,328.1 L 283.5,335.3 Q 283.5,338.3 280.6,338.3 L 273.4,338.3 Q 270.5,338.3 270.5,335.3 L 270.5,328.1 C 270.5,328.1 273.1,328.1 273.1,326.1 C 273.1,324.1 270.5,324.1 270.5,324.1 Z" fill="#d7dade" stroke="#8a9098" stroke-width="1.2"/><rect x="271.7" y="330.4" width="10.6" height="2.0" fill="#b6bbc0" opacity="0.85"/><rect x="271.7" y="330.6" width="10.6" height="3.2" fill="#6b7178" opacity="0.85"/><ellipse cx="277.0" cy="326.1" rx="3.9" ry="1.8" fill="#eef1f3" stroke="#aab0b6" stroke-width="0.6"/><text x="268.0" y="410.0" text-anchor="middle" font-size="13" font-weight="700" fill="#334155">22</text>
<rect x="300" y="318" width="360" height="150" rx="12" fill="#f0fdf4" stroke="#86efac" stroke-width="2"/>
<text x="480.0" y="342" text-anchor="middle" font-size="15" font-weight="800" fill="#15803d">Par 23 – könskromosomer</text>
<path d="M 377.5,367.9 Q 377.5,362.0 383.4,362.0 L 384.6,362.0 Q 390.5,362.0 390.5,367.9 L 390.5,376.3 C 390.5,376.3 387.9,376.3 387.9,378.3 C 387.9,380.3 390.5,380.3 390.5,380.3 L 390.5,396.8 Q 390.5,402.7 384.6,402.7 L 383.4,402.7 Q 377.5,402.7 377.5,396.8 L 377.5,380.3 C 377.5,380.3 380.1,380.3 380.1,378.3 C 380.1,376.3 377.5,376.3 377.5,376.3 Z" fill="#bcdcc6" stroke="#8a9098" stroke-width="1.2"/><ellipse cx="384.0" cy="378.3" rx="3.9" ry="1.8" fill="#eef1f3" stroke="#aab0b6" stroke-width="0.6"/>
<path d="M 399.5,364.9 Q 399.5,362.0 402.4,362.0 L 409.6,362.0 Q 412.5,362.0 412.5,364.9 L 412.5,364.3 C 412.5,364.3 409.9,364.3 409.9,366.3 C 409.9,368.3 412.5,368.3 412.5,368.3 L 412.5,375.1 Q 412.5,378.0 409.6,378.0 L 402.4,378.0 Q 399.5,378.0 399.5,375.1 L 399.5,368.3 C 399.5,368.3 402.1,368.3 402.1,366.3 C 402.1,364.3 399.5,364.3 399.5,364.3 Z" fill="#bcdcc6" stroke="#8a9098" stroke-width="1.2"/><rect x="400.7" y="371.6" width="10.6" height="2.2" fill="#6b7178" opacity="0.85"/><ellipse cx="406.0" cy="366.3" rx="3.9" ry="1.8" fill="#eef1f3" stroke="#aab0b6" stroke-width="0.6"/>
<text x="384" y="446" text-anchor="middle" font-size="13" font-weight="800" fill="#334155">X</text>
<text x="406" y="446" text-anchor="middle" font-size="13" font-weight="800" fill="#334155">Y</text>
<text x="395" y="458" text-anchor="middle" font-size="12.5" font-weight="700" fill="#15803d">Man (XY)</text>
<text x="480.0" y="413" text-anchor="middle" font-size="13" font-style="italic" fill="#64748b">eller</text>
<path d="M 547.5,367.9 Q 547.5,362.0 553.4,362.0 L 554.6,362.0 Q 560.5,362.0 560.5,367.9 L 560.5,376.3 C 560.5,376.3 557.9,376.3 557.9,378.3 C 557.9,380.3 560.5,380.3 560.5,380.3 L 560.5,396.8 Q 560.5,402.7 554.6,402.7 L 553.4,402.7 Q 547.5,402.7 547.5,396.8 L 547.5,380.3 C 547.5,380.3 550.1,380.3 550.1,378.3 C 550.1,376.3 547.5,376.3 547.5,376.3 Z" fill="#cfe0f0" stroke="#8a9098" stroke-width="1.2"/><ellipse cx="554.0" cy="378.3" rx="3.9" ry="1.8" fill="#eef1f3" stroke="#aab0b6" stroke-width="0.6"/>
<path d="M 569.5,367.9 Q 569.5,362.0 575.4,362.0 L 576.6,362.0 Q 582.5,362.0 582.5,367.9 L 582.5,376.3 C 582.5,376.3 579.9,376.3 579.9,378.3 C 579.9,380.3 582.5,380.3 582.5,380.3 L 582.5,396.8 Q 582.5,402.7 576.6,402.7 L 575.4,402.7 Q 569.5,402.7 569.5,396.8 L 569.5,380.3 C 569.5,380.3 572.1,380.3 572.1,378.3 C 572.1,376.3 569.5,376.3 569.5,376.3 Z" fill="#cfe0f0" stroke="#8a9098" stroke-width="1.2"/><ellipse cx="576.0" cy="378.3" rx="3.9" ry="1.8" fill="#eef1f3" stroke="#aab0b6" stroke-width="0.6"/>
<text x="554" y="446" text-anchor="middle" font-size="13" font-weight="800" fill="#334155">X</text>
<text x="576" y="446" text-anchor="middle" font-size="13" font-weight="800" fill="#334155">X</text>
<text x="565" y="458" text-anchor="middle" font-size="12.5" font-weight="700" fill="#15803d">Kvinna (XX)</text>
<text x="28" y="500" font-size="11.5" fill="#64748b">Kromosomerna ordnas efter storlek och bandmönster. Y-kromosomen är liten – dess närvaro ger biologiskt manligt kön.</text>
</svg>