<svg viewBox="0 0 780 540" xmlns="http://www.w3.org/2000/svg" font-family="system-ui, -apple-system, sans-serif">
  <defs>
    <radialGradient id="largeSub" cx="42%" cy="32%" r="78%"><stop offset="0%" stop-color="#d8a85a"/><stop offset="100%" stop-color="#9a6526"/></radialGradient>
    <radialGradient id="smallSub" cx="50%" cy="32%" r="85%"><stop offset="0%" stop-color="#c8923a"/><stop offset="100%" stop-color="#855420"/></radialGradient>
    <marker id="rbArr" markerWidth="11" markerHeight="11" refX="8" refY="5" orient="auto"><path d="M0,0 L11,5 L0,10 Z" fill="#14532d"/></marker>
  </defs>
  <rect width="780" height="540" fill="#f0fdf4" rx="14"/>
  <text x="300" y="38" text-anchor="middle" font-size="22" font-weight="800" fill="#166534" letter-spacing="1">RIBOSOMEN</text>
  <ellipse cx="320" cy="210" rx="212" ry="116" fill="url(#largeSub)" stroke="#7c4f1d" stroke-width="2"/>
  <ellipse cx="262" cy="166" rx="120" ry="60" fill="#ffffff" opacity="0.08"/>
  <path d="M184 300 Q210 252 236 300 L232 320 Q210 288 188 320 Z" fill="#5b3a16" opacity="0.5"/>
  <path d="M294 300 Q320 252 346 300 L342 320 Q320 288 298 320 Z" fill="#5b3a16" opacity="0.5"/>
  <path d="M404 300 Q430 252 456 300 L452 320 Q430 288 408 320 Z" fill="#5b3a16" opacity="0.5"/>
  <g transform="translate(320,230)">
    <path d="M-20 4 Q-22 -4 -12 -4 L12 -4 Q22 -4 20 6 L16 40 Q15 48 6 48 L-6 48 Q-15 48 -16 40 Z" fill="#9ca3af" stroke="#7d848c" stroke-width="1.2"/>
    <path d="M-12 2 L12 2" stroke="#cbd2d9" stroke-width="2" opacity="0.6"/>
    <line x1="-9" y1="48" x2="-9" y2="90" stroke="#3b82f6" stroke-width="4.5" stroke-linecap="round"/>
    <line x1="0" y1="48" x2="0" y2="90" stroke="#8b5cf6" stroke-width="4.5" stroke-linecap="round"/>
    <line x1="9" y1="48" x2="9" y2="90" stroke="#ec4899" stroke-width="4.5" stroke-linecap="round"/>
    <line x1="0" y1="-4" x2="0" y2="-20" stroke="#9ca3af" stroke-width="4"/>
    <circle cx="0" cy="-30" r="13" fill="#ef4444"/><circle cx="-4" cy="-34" r="5" fill="#fff" opacity="0.5"/>

  </g>
  <g transform="translate(430,230)">
    <path d="M-20 4 Q-22 -4 -12 -4 L12 -4 Q22 -4 20 6 L16 40 Q15 48 6 48 L-6 48 Q-15 48 -16 40 Z" fill="#9ca3af" stroke="#7d848c" stroke-width="1.2"/>
    <path d="M-12 2 L12 2" stroke="#cbd2d9" stroke-width="2" opacity="0.6"/>
    <line x1="-9" y1="48" x2="-9" y2="90" stroke="#22c55e" stroke-width="4.5" stroke-linecap="round"/>
    <line x1="0" y1="48" x2="0" y2="90" stroke="#f59e0b" stroke-width="4.5" stroke-linecap="round"/>
    <line x1="9" y1="48" x2="9" y2="90" stroke="#3b82f6" stroke-width="4.5" stroke-linecap="round"/>
    <line x1="0" y1="-4" x2="0" y2="-20" stroke="#9ca3af" stroke-width="4"/>
    <circle cx="0" cy="-30" r="13" fill="#22c55e"/><circle cx="-4" cy="-34" r="5" fill="#fff" opacity="0.5"/>

  </g>
  <g transform="translate(185,212) rotate(-20)">
    <path d="M-20 4 Q-22 -4 -12 -4 L12 -4 Q22 -4 20 6 L16 40 Q15 48 6 48 L-6 48 Q-15 48 -16 40 Z" fill="#9ca3af" stroke="#7d848c" stroke-width="1.2"/>
    <path d="M-12 2 L12 2" stroke="#cbd2d9" stroke-width="2" opacity="0.6"/>
    <line x1="-9" y1="48" x2="-9" y2="64" stroke="#6b7280" stroke-width="4.5" stroke-linecap="round"/>
    <line x1="0" y1="48" x2="0" y2="64" stroke="#6b7280" stroke-width="4.5" stroke-linecap="round"/>
    <line x1="9" y1="48" x2="9" y2="64" stroke="#6b7280" stroke-width="4.5" stroke-linecap="round"/>

  </g>
  <line x1="150" y1="250" x2="120" y2="262" stroke="#fff" stroke-width="2.4" marker-end="url(#rbArr)" opacity="0.7"/>
  <path d="M392 244 q-30 -18 -58 -2 m6 -8 l-8 8 l10 4" stroke="#fff" stroke-width="2.6" fill="none" stroke-linecap="round" stroke-linejoin="round" opacity="0.8"/>
  <path d="M282 244 q-30 -16 -54 -2 m6 -7 l-8 7 l10 4" stroke="#fff" stroke-width="2.6" fill="none" stroke-linecap="round" stroke-linejoin="round" opacity="0.6"/>
  <polyline points="320,200 298,186 274,174 249,164 223,154 197,146 171,138 146,132" fill="none" stroke="#15803d" stroke-width="2" opacity="0.35"/>
  <circle cx="320" cy="200" r="12" fill="#ef4444"/><circle cx="316" cy="196" r="4.5" fill="#fff" opacity="0.5"/>
  <circle cx="298" cy="186" r="12" fill="#3b82f6"/><circle cx="294" cy="182" r="4.5" fill="#fff" opacity="0.5"/>
  <circle cx="274" cy="174" r="12" fill="#8b5cf6"/><circle cx="270" cy="170" r="4.5" fill="#fff" opacity="0.5"/>
  <circle cx="249" cy="164" r="12" fill="#ec4899"/><circle cx="245" cy="160" r="4.5" fill="#fff" opacity="0.5"/>
  <circle cx="223" cy="154" r="12" fill="#f59e0b"/><circle cx="219" cy="150" r="4.5" fill="#fff" opacity="0.5"/>
  <circle cx="197" cy="146" r="12" fill="#ef4444"/><circle cx="193" cy="142" r="4.5" fill="#fff" opacity="0.5"/>
  <circle cx="171" cy="138" r="12" fill="#84cc16"/><circle cx="167" cy="134" r="4.5" fill="#fff" opacity="0.5"/>
  <circle cx="146" cy="132" r="12" fill="#f59e0b"/><circle cx="142" cy="128" r="4.5" fill="#fff" opacity="0.5"/>
  <line x1="133" y1="127" x2="110" y2="119" stroke="#14532d" stroke-width="2.5" marker-end="url(#rbArr)"/>
  <text x="210" y="250" text-anchor="middle" font-size="15" font-weight="800" fill="#fff">E</text>
  <text x="320" y="250" text-anchor="middle" font-size="15" font-weight="800" fill="#fff">P</text>
  <text x="430" y="250" text-anchor="middle" font-size="15" font-weight="800" fill="#fff">A</text>
  <ellipse cx="320" cy="404" rx="224" ry="52" fill="url(#smallSub)" stroke="#6b4218" stroke-width="2"/>
  <text x="320" y="410" text-anchor="middle" font-size="13" font-weight="700" fill="#fff" opacity="0.92">Liten subenhet</text>
  <path d="M70 340 Q 200 335 360 339 T 650 338" fill="none" stroke="#0ea5e9" stroke-width="9" stroke-linecap="round"/>
  <line x1="91" y1="338" x2="91" y2="320" stroke="#84cc16" stroke-width="4.5" stroke-linecap="round"/>
  <line x1="100" y1="338" x2="100" y2="320" stroke="#f59e0b" stroke-width="4.5" stroke-linecap="round"/>
  <line x1="109" y1="338" x2="109" y2="320" stroke="#ef4444" stroke-width="4.5" stroke-linecap="round"/>
  <line x1="146" y1="338" x2="146" y2="320" stroke="#3b82f6" stroke-width="4.5" stroke-linecap="round"/>
  <line x1="155" y1="338" x2="155" y2="320" stroke="#8b5cf6" stroke-width="4.5" stroke-linecap="round"/>
  <line x1="164" y1="338" x2="164" y2="320" stroke="#ec4899" stroke-width="4.5" stroke-linecap="round"/>
  <line x1="201" y1="338" x2="201" y2="320" stroke="#84cc16" stroke-width="4.5" stroke-linecap="round"/>
  <line x1="210" y1="338" x2="210" y2="320" stroke="#f59e0b" stroke-width="4.5" stroke-linecap="round"/>
  <line x1="219" y1="338" x2="219" y2="320" stroke="#ef4444" stroke-width="4.5" stroke-linecap="round"/>
  <line x1="256" y1="338" x2="256" y2="320" stroke="#f59e0b" stroke-width="4.5" stroke-linecap="round"/>
  <line x1="265" y1="338" x2="265" y2="320" stroke="#ef4444" stroke-width="4.5" stroke-linecap="round"/>
  <line x1="274" y1="338" x2="274" y2="320" stroke="#3b82f6" stroke-width="4.5" stroke-linecap="round"/>
  <line x1="311" y1="338" x2="311" y2="320" stroke="#3b82f6" stroke-width="4.5" stroke-linecap="round"/>
  <line x1="320" y1="338" x2="320" y2="320" stroke="#8b5cf6" stroke-width="4.5" stroke-linecap="round"/>
  <line x1="329" y1="338" x2="329" y2="320" stroke="#ec4899" stroke-width="4.5" stroke-linecap="round"/>
  <line x1="366" y1="338" x2="366" y2="320" stroke="#0ea5e9" stroke-width="4.5" stroke-linecap="round"/>
  <line x1="375" y1="338" x2="375" y2="320" stroke="#84cc16" stroke-width="4.5" stroke-linecap="round"/>
  <line x1="384" y1="338" x2="384" y2="320" stroke="#f59e0b" stroke-width="4.5" stroke-linecap="round"/>
  <line x1="421" y1="338" x2="421" y2="320" stroke="#22c55e" stroke-width="4.5" stroke-linecap="round"/>
  <line x1="430" y1="338" x2="430" y2="320" stroke="#f59e0b" stroke-width="4.5" stroke-linecap="round"/>
  <line x1="439" y1="338" x2="439" y2="320" stroke="#3b82f6" stroke-width="4.5" stroke-linecap="round"/>
  <line x1="476" y1="338" x2="476" y2="320" stroke="#ec4899" stroke-width="4.5" stroke-linecap="round"/>
  <line x1="485" y1="338" x2="485" y2="320" stroke="#22c55e" stroke-width="4.5" stroke-linecap="round"/>
  <line x1="494" y1="338" x2="494" y2="320" stroke="#0ea5e9" stroke-width="4.5" stroke-linecap="round"/>
  <line x1="551" y1="338" x2="551" y2="320" stroke="#84cc16" stroke-width="4.5" stroke-linecap="round"/>
  <line x1="560" y1="338" x2="560" y2="320" stroke="#f59e0b" stroke-width="4.5" stroke-linecap="round"/>
  <line x1="569" y1="338" x2="569" y2="320" stroke="#ef4444" stroke-width="4.5" stroke-linecap="round"/>
  <line x1="601" y1="338" x2="601" y2="320" stroke="#3b82f6" stroke-width="4.5" stroke-linecap="round"/>
  <line x1="610" y1="338" x2="610" y2="320" stroke="#8b5cf6" stroke-width="4.5" stroke-linecap="round"/>
  <line x1="619" y1="338" x2="619" y2="320" stroke="#ec4899" stroke-width="4.5" stroke-linecap="round"/>
  <line x1="78" y1="340" x2="56" y2="341" stroke="#0369a1" stroke-width="3" marker-end="url(#rbArr)"/>
  <text x="360" y="150" text-anchor="middle" font-size="13" font-weight="700" fill="#fff" opacity="0.92">Stor subenhet</text>
  <path d="M546 312 L546 318 L574 318 L574 312" fill="none" stroke="#64748b" stroke-width="1.6"/>
  <text x="560" y="302" text-anchor="middle" font-size="12.5" font-weight="700" fill="#334155">Kodon</text>
  <text x="560" y="289" text-anchor="middle" font-size="9.5" fill="#64748b">tre baser = en aminosyra</text>
  <text x="650" y="366" font-size="13" font-weight="700" fill="#0369a1">mRNA</text>
  <g transform="translate(706,198)">
    <path d="M-20 4 Q-22 -4 -12 -4 L12 -4 Q22 -4 20 6 L16 40 Q15 48 6 48 L-6 48 Q-15 48 -16 40 Z" fill="#9ca3af" stroke="#7d848c" stroke-width="1.2"/>
    <line x1="-9" y1="48" x2="-9" y2="64" stroke="#6b7280" stroke-width="4.5" stroke-linecap="round"/>
    <line x1="0" y1="48" x2="0" y2="64" stroke="#6b7280" stroke-width="4.5" stroke-linecap="round"/>
    <line x1="9" y1="48" x2="9" y2="64" stroke="#6b7280" stroke-width="4.5" stroke-linecap="round"/>
    <line x1="0" y1="-4" x2="0" y2="-20" stroke="#9ca3af" stroke-width="4"/>
    <circle cx="0" cy="-30" r="13" fill="#f59e0b"/><circle cx="-4" cy="-34" r="5" fill="#fff" opacity="0.5"/>
  </g>
  <text x="150" y="84" text-anchor="middle" font-size="13" font-weight="700" fill="#14532d">Aminosyrakedja</text>
  <text x="150" y="100" text-anchor="middle" font-size="13" font-weight="700" fill="#14532d">(protein)</text>
  <line x1="166" y1="108" x2="188" y2="144" stroke="#94a3b8" stroke-width="1.3"/>
  <text x="706" y="150" text-anchor="middle" font-size="13" font-weight="700" fill="#14532d">Aminosyra</text>
  <line x1="706" y1="158" x2="706" y2="166" stroke="#94a3b8" stroke-width="1.3"/>
  <text x="760" y="212" text-anchor="middle" font-size="13" font-weight="700" fill="#14532d">tRNA</text>
  <line x1="740" y1="212" x2="726" y2="224" stroke="#94a3b8" stroke-width="1.3"/>
  <text x="704" y="278" text-anchor="middle" font-size="10" fill="#64748b">tre pinnar = antikodon</text>
</svg>
