<svg xmlns="http://www.w3.org/2000/svg" viewBox="44.0 -12.0 580.5 296.0" width="580" height="296"><g stroke="#14213d" stroke-width="2" stroke-linecap="round" fill="none"><line x1="150.0" y1="94.0" x2="198.5" y2="122.0"/><line x1="198.5" y1="122.0" x2="198.5" y2="178.0"/><line x1="198.5" y1="178.0" x2="150.0" y2="206.0"/><line x1="150.0" y1="206.0" x2="101.5" y2="178.0"/><line x1="101.5" y1="178.0" x2="101.5" y2="122.0"/><line x1="101.5" y1="122.0" x2="150.0" y2="94.0"/><line x1="518.5" y1="122.0" x2="518.5" y2="178.0"/><line x1="518.5" y1="178.0" x2="470.0" y2="206.0"/><line x1="470.0" y1="206.0" x2="421.5" y2="178.0"/><line x1="421.5" y1="178.0" x2="421.5" y2="122.0"/><line x1="421.5" y1="122.0" x2="470.0" y2="94.0"/><line x1="470.0" y1="94.0" x2="518.5" y2="122.0"/><line x1="198.5" y1="122.0" x2="310.0" y2="122.0"/><line x1="310.0" y1="122.0" x2="421.5" y2="122.0"/><line x1="101.5" y1="122.0" x2="85.5" y2="56.0"/><line x1="198.5" y1="178.0" x2="198.5" y2="244.0"/><line x1="150.0" y1="206.0" x2="84.0" y2="236.0"/><line x1="470.0" y1="94.0" x2="460.0" y2="28.0"/><line x1="518.5" y1="178.0" x2="584.5" y2="156.0"/><line x1="470.0" y1="206.0" x2="536.0" y2="228.0"/></g><text x="150.0" y="94.0" text-anchor="middle" dominant-baseline="central" font-family="Arial, sans-serif" font-size="20" font-weight="700" fill="#14213d">O</text><text x="518.5" y="122.0" text-anchor="middle" dominant-baseline="central" font-family="Arial, sans-serif" font-size="20" font-weight="700" fill="#14213d">O</text><text x="310.0" y="122.0" text-anchor="middle" dominant-baseline="central" font-family="Arial, sans-serif" font-size="20" font-weight="700" fill="#14213d">O</text><text x="85.5" y="56.0" text-anchor="middle" dominant-baseline="central" font-family="Arial, sans-serif" font-size="20" font-weight="400" fill="#14213d">CH<tspan dy="6" font-size="13">2</tspan>OH</text><text x="198.5" y="244.0" text-anchor="middle" dominant-baseline="central" font-family="Arial, sans-serif" font-size="20" font-weight="400" fill="#14213d">OH</text><text x="84.0" y="236.0" text-anchor="middle" dominant-baseline="central" font-family="Arial, sans-serif" font-size="20" font-weight="400" fill="#14213d">OH</text><text x="460.0" y="28.0" text-anchor="middle" dominant-baseline="central" font-family="Arial, sans-serif" font-size="20" font-weight="400" fill="#14213d">CH<tspan dy="6" font-size="13">2</tspan>OH</text><text x="584.5" y="156.0" text-anchor="middle" dominant-baseline="central" font-family="Arial, sans-serif" font-size="20" font-weight="400" fill="#14213d">OH</text><text x="536.0" y="228.0" text-anchor="middle" dominant-baseline="central" font-family="Arial, sans-serif" font-size="20" font-weight="400" fill="#14213d">OH</text><text x="310.0" y="82.0" text-anchor="middle" dominant-baseline="central" font-family="Arial, sans-serif" font-size="16" font-weight="700" fill="#14213d">β-1,4-bindning</text></svg>