<svg xmlns="http://www.w3.org/2000/svg" viewBox="44.0 16.0 560.5 360.0" width="560" height="360"><g stroke="#14213d" stroke-width="2" stroke-linecap="round" fill="none"><line x1="150.0" y1="94.0" x2="198.5" y2="122.0"/><line x1="198.5" y1="122.0" x2="198.5" y2="178.0"/><line x1="198.5" y1="178.0" x2="150.0" y2="206.0"/><line x1="150.0" y1="206.0" x2="101.5" y2="178.0"/><line x1="101.5" y1="178.0" x2="101.5" y2="122.0"/><line x1="101.5" y1="122.0" x2="150.0" y2="94.0"/><line x1="450.0" y1="224.0" x2="498.5" y2="252.0"/><line x1="498.5" y1="252.0" x2="498.5" y2="308.0"/><line x1="498.5" y1="308.0" x2="450.0" y2="336.0"/><line x1="450.0" y1="336.0" x2="401.5" y2="308.0"/><line x1="401.5" y1="308.0" x2="401.5" y2="252.0"/><line x1="401.5" y1="252.0" x2="450.0" y2="224.0"/><line x1="198.5" y1="122.0" x2="300.0" y2="215.0"/><line x1="300.0" y1="215.0" x2="401.5" y2="308.0"/><line x1="101.5" y1="122.0" x2="85.5" y2="56.0"/><line x1="198.5" y1="178.0" x2="198.5" y2="244.0"/><line x1="150.0" y1="206.0" x2="84.0" y2="236.0"/><line x1="401.5" y1="252.0" x2="391.5" y2="186.0"/><line x1="498.5" y1="252.0" x2="564.5" y2="230.0"/><line x1="498.5" y1="308.0" x2="564.5" y2="330.0"/></g><text x="150.0" y="94.0" text-anchor="middle" dominant-baseline="central" font-family="Arial, sans-serif" font-size="20" font-weight="700" fill="#14213d">O</text><text x="450.0" y="224.0" text-anchor="middle" dominant-baseline="central" font-family="Arial, sans-serif" font-size="20" font-weight="700" fill="#14213d">O</text><text x="300.0" y="215.0" text-anchor="middle" dominant-baseline="central" font-family="Arial, sans-serif" font-size="20" font-weight="700" fill="#14213d">O</text><text x="85.5" y="56.0" text-anchor="middle" dominant-baseline="central" font-family="Arial, sans-serif" font-size="20" font-weight="400" fill="#14213d">CH<tspan dy="6" font-size="13">2</tspan>OH</text><text x="198.5" y="244.0" text-anchor="middle" dominant-baseline="central" font-family="Arial, sans-serif" font-size="20" font-weight="400" fill="#14213d">OH</text><text x="84.0" y="236.0" text-anchor="middle" dominant-baseline="central" font-family="Arial, sans-serif" font-size="20" font-weight="400" fill="#14213d">OH</text><text x="391.5" y="186.0" text-anchor="middle" dominant-baseline="central" font-family="Arial, sans-serif" font-size="20" font-weight="400" fill="#14213d">CH<tspan dy="6" font-size="13">2</tspan>OH</text><text x="564.5" y="230.0" text-anchor="middle" dominant-baseline="central" font-family="Arial, sans-serif" font-size="20" font-weight="400" fill="#14213d">OH</text><text x="564.5" y="330.0" text-anchor="middle" dominant-baseline="central" font-family="Arial, sans-serif" font-size="20" font-weight="400" fill="#14213d">OH</text><text x="300.0" y="161.0" text-anchor="middle" dominant-baseline="central" font-family="Arial, sans-serif" font-size="16" font-weight="700" fill="#14213d">α-1,4-bindning</text></svg>