<svg xmlns="http://www.w3.org/2000/svg" viewBox="-2.0 20.0 662.0 140.0" width="662" height="140"><g stroke="#14213d" stroke-width="2.4" stroke-linecap="round"><line x1="60.0" y1="90.0" x2="92.0" y2="66.0"/><line x1="92.0" y1="66.0" x2="124.0" y2="90.0"/><line x1="124.0" y1="90.0" x2="156.0" y2="66.0"/><line x1="156.0" y1="66.0" x2="188.0" y2="90.0"/><line x1="188.0" y1="90.0" x2="220.0" y2="66.0"/><line x1="220.0" y1="66.0" x2="252.0" y2="90.0"/><line x1="252.0" y1="90.0" x2="284.0" y2="66.0"/><line x1="284.0" y1="66.0" x2="316.0" y2="90.0"/><line x1="314.0" y1="92.7" x2="346.0" y2="116.7"/><line x1="318.0" y1="87.3" x2="350.0" y2="111.3"/><line x1="348.0" y1="114.0" x2="380.0" y2="90.0"/><line x1="380.0" y1="90.0" x2="412.0" y2="114.0"/><line x1="412.0" y1="114.0" x2="444.0" y2="90.0"/><line x1="444.0" y1="90.0" x2="476.0" y2="114.0"/><line x1="476.0" y1="114.0" x2="508.0" y2="90.0"/><line x1="508.0" y1="90.0" x2="540.0" y2="114.0"/><line x1="540.0" y1="114.0" x2="572.0" y2="90.0"/><line x1="572.0" y1="90.0" x2="604.0" y2="114.0"/></g><text x="38.0" y="90.0" text-anchor="end" dominant-baseline="central" font-family="Arial, sans-serif" font-size="19" font-weight="700" fill="#14213d">HOOC</text><text x="626.0" y="114.0" text-anchor="start" dominant-baseline="central" font-family="Arial, sans-serif" font-size="19" font-weight="700" fill="#14213d">CH<tspan dy="6" font-size="13">3</tspan></text><text x="316.0" y="56.0" text-anchor="middle" dominant-baseline="central" font-family="Arial, sans-serif" font-size="14" font-weight="400" fill="#14213d">cis-dubbelbindning</text></svg>