<svg xmlns="http://www.w3.org/2000/svg" viewBox="0 0 100 100">
  <defs>
    <linearGradient id="foilBase" x1="0%" y1="0%" x2="100%" y2="100%">
      <stop offset="0%" stop-color="#f8fbfd"/>
      <stop offset="18%" stop-color="#cfd6dc"/>
      <stop offset="35%" stop-color="#eef2f5"/>
      <stop offset="55%" stop-color="#a5afb8"/>
      <stop offset="72%" stop-color="#f7fafc"/>
      <stop offset="100%" stop-color="#8d98a2"/>
    </linearGradient>

    <linearGradient id="foilHighlight" x1="0%" y1="0%" x2="0%" y2="100%">
      <stop offset="0%" stop-color="#ffffff" stop-opacity="0.9"/>
      <stop offset="100%" stop-color="#ffffff" stop-opacity="0"/>
    </linearGradient>

    <filter id="shadow" x="-20%" y="-20%" width="140%" height="140%">
      <feDropShadow dx="1.5" dy="2" stdDeviation="1.8" flood-opacity="0.25"/>
    </filter>
  </defs>

  <rect x="3" y="3" width="94" height="94" rx="10" fill="#fff" stroke="#7a3db8" stroke-width="4"/>

  <ellipse cx="50" cy="76" rx="24" ry="7" fill="#cfcfcf" opacity="0.45"/>

  <path
    d="M24 34
       L34 26
       L50 30
       L67 24
       L77 35
       L73 60
       L61 72
       L42 70
       L26 63
       L22 47 Z"
    fill="url(#foilBase)"
    stroke="#5f6870"
    stroke-width="2"
    filter="url(#shadow)"
  />

  <path
    d="M34 26 L39 45 L50 30 L56 48 L67 24"
    fill="none"
    stroke="#ffffff"
    stroke-width="2"
    opacity="0.75"
  />

  <path
    d="M26 63 L39 45 L48 58 L61 72"
    fill="none"
    stroke="#7f8b95"
    stroke-width="1.6"
    opacity="0.8"
  />

  <path
    d="M22 47 L36 50 L48 58 L73 60"
    fill="none"
    stroke="#b7c0c8"
    stroke-width="1.4"
    opacity="0.9"
  />

  <path
    d="M28 33 Q42 29 56 34 T74 31
       L70 40 Q54 36 40 40 T26 38 Z"
    fill="url(#foilHighlight)"
    opacity="0.7"
  />
</svg>
