<svg xmlns="http://www.w3.org/2000/svg" viewBox="0 0 100 100">
  <rect x="3" y="3" width="94" height="94" rx="10" fill="#fff" stroke="#7a3db8" stroke-width="4"/>

  <!-- Miniperiodiska systemet -->
  <rect x="14" y="18" width="10" height="10" fill="#e8eef7" stroke="#666" stroke-width="1.2"/>
  <rect x="76" y="18" width="10" height="10" fill="#e8eef7" stroke="#666" stroke-width="1.2"/>

  <rect x="14" y="31" width="10" height="10" fill="#e8eef7" stroke="#666" stroke-width="1.2"/>
  <rect x="27" y="31" width="10" height="10" fill="#e8eef7" stroke="#666" stroke-width="1.2"/>
  <rect x="40" y="31" width="10" height="10" fill="#e8eef7" stroke="#666" stroke-width="1.2"/>
  <rect x="53" y="31" width="10" height="10" fill="#e8eef7" stroke="#666" stroke-width="1.2"/>
  <rect x="66" y="31" width="10" height="10" fill="#e8eef7" stroke="#666" stroke-width="1.2"/>
  <rect x="79" y="31" width="10" height="10" fill="#e8eef7" stroke="#666" stroke-width="1.2"/>

  <rect x="14" y="44" width="10" height="10" fill="#d9c2ff" stroke="#5b2ca0" stroke-width="1.8"/>
  <rect x="27" y="44" width="10" height="10" fill="#d9c2ff" stroke="#5b2ca0" stroke-width="1.8"/>
  <rect x="40" y="44" width="10" height="10" fill="#d9c2ff" stroke="#5b2ca0" stroke-width="1.8"/>
  <rect x="53" y="44" width="10" height="10" fill="#d9c2ff" stroke="#5b2ca0" stroke-width="1.8"/>
  <rect x="66" y="44" width="10" height="10" fill="#d9c2ff" stroke="#5b2ca0" stroke-width="1.8"/>
  <rect x="79" y="44" width="10" height="10" fill="#d9c2ff" stroke="#5b2ca0" stroke-width="1.8"/>

  <rect x="14" y="57" width="10" height="10" fill="#e8eef7" stroke="#666" stroke-width="1.2"/>
  <rect x="27" y="57" width="10" height="10" fill="#e8eef7" stroke="#666" stroke-width="1.2"/>
  <rect x="40" y="57" width="10" height="10" fill="#e8eef7" stroke="#666" stroke-width="1.2"/>
  <rect x="53" y="57" width="10" height="10" fill="#e8eef7" stroke="#666" stroke-width="1.2"/>
  <rect x="66" y="57" width="10" height="10" fill="#e8eef7" stroke="#666" stroke-width="1.2"/>
  <rect x="79" y="57" width="10" height="10" fill="#e8eef7" stroke="#666" stroke-width="1.2"/>

  <rect x="14" y="70" width="10" height="10" fill="#e8eef7" stroke="#666" stroke-width="1.2"/>
  <rect x="27" y="70" width="10" height="10" fill="#e8eef7" stroke="#666" stroke-width="1.2"/>
  <rect x="40" y="70" width="10" height="10" fill="#e8eef7" stroke="#666" stroke-width="1.2"/>
  <rect x="53" y="70" width="10" height="10" fill="#e8eef7" stroke="#666" stroke-width="1.2"/>
  <rect x="66" y="70" width="10" height="10" fill="#e8eef7" stroke="#666" stroke-width="1.2"/>
  <rect x="79" y="70" width="10" height="10" fill="#e8eef7" stroke="#666" stroke-width="1.2"/>
</svg>
