<svg xmlns="http://www.w3.org/2000/svg" viewBox="0 0 100 100">
  <rect x="3" y="3" width="94" height="94" rx="10" fill="#fff" stroke="#7a3db8" stroke-width="4"/>

  <rect x="16" y="68" width="68" height="10" rx="3" fill="#d8d2cc"/>
  <ellipse cx="50" cy="65" rx="22" ry="10" fill="#f3f3f3" stroke="#9a9a9a" stroke-width="1.8"/>

  <polygon points="38,63 42,53 47,63 42,68" fill="#ffffff" stroke="#9a9a9a" stroke-width="1"/>
  <polygon points="48,61 52,50 57,61 52,67" fill="#fbfbfb" stroke="#9a9a9a" stroke-width="1"/>
  <polygon points="58,64 61,56 65,64 61,68" fill="#ffffff" stroke="#9a9a9a" stroke-width="1"/>
  <polygon points="31,66 34,59 38,66 34,70" fill="#fafafa" stroke="#9a9a9a" stroke-width="1"/>
  <polygon points="43,69 46,62 50,69 46,73" fill="#ffffff" stroke="#9a9a9a" stroke-width="1"/>
  <polygon points="54,69 57,61 61,69 57,73" fill="#fcfcfc" stroke="#9a9a9a" stroke-width="1"/>
</svg>
