<svg xmlns="http://www.w3.org/2000/svg" viewBox="0 0 150 90" width="150" height="90" role="img" aria-labelledby="t d" font-family="system-ui, -apple-system, 'Segoe UI', Roboto, Arial, sans-serif">
<title id="t">Ikon: indunstning</title>
<desc id="d">Skål med salt över en låga och vattenånga som stiger.</desc>
<path d="M35,50 A40,26 0 0 0 115,50 Z" fill="#ffffff" stroke="#334155" stroke-width="3" stroke-linejoin="round" stroke-linecap="round" />
<line x1="30.0" y1="50.0" x2="120.0" y2="50.0" stroke="#334155" stroke-width="3" stroke-linecap="round" />
<rect x="57.0" y="54.0" width="6.0" height="6.0" rx="0" fill="#ffffff" stroke="#6d28d9" stroke-width="1.5" />
<rect x="72.0" y="54.0" width="6.0" height="6.0" rx="0" fill="#ffffff" stroke="#6d28d9" stroke-width="1.5" />
<rect x="87.0" y="54.0" width="6.0" height="6.0" rx="0" fill="#ffffff" stroke="#6d28d9" stroke-width="1.5" />
<path d="M75.0,86.0 C69.6,78.8 72.6,72.8 75.0,65.6 C77.4,72.8 80.4,78.8 75.0,86.0 Z" fill="#fdba74" stroke="#c2410c" stroke-width="1.6" stroke-linejoin="round" stroke-linecap="round" />
<path d="M75.0,85.0 C72.6,82.4 73.8,79.4 75.0,76.4 C76.2,79.4 77.4,82.4 75.0,85.0 Z" fill="#fde68a" stroke="none" stroke-width="2" stroke-linejoin="round" stroke-linecap="round" />
<path d="M53,40 C41,30 65,20 53,8" fill="none" stroke="#94a3b8" stroke-width="3" stroke-linejoin="round" stroke-linecap="round" />
<path d="M75,40 C63,30 87,20 75,8" fill="none" stroke="#94a3b8" stroke-width="3" stroke-linejoin="round" stroke-linecap="round" />
<path d="M97,40 C85,30 109,20 97,8" fill="none" stroke="#94a3b8" stroke-width="3" stroke-linejoin="round" stroke-linecap="round" />
</svg>
