<svg xmlns="http://www.w3.org/2000/svg" viewBox="0 0 860 260" width="860" height="260" role="img" aria-labelledby="t d" font-family="system-ui, -apple-system, 'Segoe UI', Roboto, Arial, sans-serif">
<title id="t">Utspädd, koncentrerad och mättad lösning</title>
<desc id="d">Tre bägare med lösta partiklar. Utspädd lösning har få lösta partiklar. Koncentrerad har många. Mättad lösning har lika många som vätskan kan hålla och ett lager olöst ämne på botten.</desc>
<path d="M50.0,30.0 L52.0,174.0 Q53.0,180.0 60.0,180.0 L190.0,180.0 Q197.0,180.0 198.0,174.0 L200.0,30.0" fill="#ffffff" stroke="none" stroke-width="2" stroke-linejoin="round" stroke-linecap="round" />
<path d="M51.0,74.9 L52.0,174.0 Q53.0,179.0 60.0,179.0 L190.0,179.0 Q197.0,179.0 198.0,174.0 L199.0,74.9 Z" fill="#f5f3ff" stroke="none" stroke-width="2" stroke-linejoin="round" stroke-linecap="round" />
<line x1="51.0" y1="74.9" x2="199.0" y2="74.9" stroke="#64748b" stroke-width="1.2" stroke-linecap="round" />
<path d="M50.0,30.0 L52.0,174.0 Q53.0,180.0 60.0,180.0 L190.0,180.0 Q197.0,180.0 198.0,174.0 L200.0,30.0" fill="none" stroke="#94a3b8" stroke-width="2.5" stroke-linejoin="round" stroke-linecap="round" />
<path d="M50.0,30.0 L44.0,27.0" fill="none" stroke="#94a3b8" stroke-width="2.5" stroke-linejoin="round" stroke-linecap="round" />
<line x1="186.0" y1="147.6" x2="196.0" y2="147.6" stroke="#94a3b8" stroke-width="1.5" stroke-linecap="round" />
<line x1="186.0" y1="115.1" x2="196.0" y2="115.1" stroke="#94a3b8" stroke-width="1.5" stroke-linecap="round" />
<line x1="186.0" y1="82.7" x2="196.0" y2="82.7" stroke="#94a3b8" stroke-width="1.5" stroke-linecap="round" />
<circle cx="121.8" cy="141.1" r="3.2" fill="#6d28d9" stroke="none" stroke-width="1" />
<circle cx="146.2" cy="96.4" r="3.2" fill="#6d28d9" stroke="none" stroke-width="1" />
<circle cx="62.6" cy="116.6" r="3.2" fill="#6d28d9" stroke="none" stroke-width="1" />
<circle cx="96.2" cy="154.4" r="3.2" fill="#6d28d9" stroke="none" stroke-width="1" />
<circle cx="149.3" cy="136.2" r="3.2" fill="#6d28d9" stroke="none" stroke-width="1" />
<circle cx="79.7" cy="122.2" r="3.2" fill="#6d28d9" stroke="none" stroke-width="1" />
<circle cx="81.9" cy="162.6" r="3.2" fill="#6d28d9" stroke="none" stroke-width="1" />
<circle cx="68.7" cy="155.1" r="3.2" fill="#6d28d9" stroke="none" stroke-width="1" />
<text x="125.0" y="214.0" font-size="19" text-anchor="middle" font-weight="700" fill="#1f2937" >Utspädd</text>
<text x="125.0" y="236.0" font-size="14" text-anchor="middle" font-weight="400" fill="#1f2937" >lite löst ämne</text>
<path d="M290.0,30.0 L292.0,174.0 Q293.0,180.0 300.0,180.0 L430.0,180.0 Q437.0,180.0 438.0,174.0 L440.0,30.0" fill="#ffffff" stroke="none" stroke-width="2" stroke-linejoin="round" stroke-linecap="round" />
<path d="M291.0,74.9 L292.0,174.0 Q293.0,179.0 300.0,179.0 L430.0,179.0 Q437.0,179.0 438.0,174.0 L439.0,74.9 Z" fill="#ede9fe" stroke="none" stroke-width="2" stroke-linejoin="round" stroke-linecap="round" />
<line x1="291.0" y1="74.9" x2="439.0" y2="74.9" stroke="#64748b" stroke-width="1.2" stroke-linecap="round" />
<path d="M290.0,30.0 L292.0,174.0 Q293.0,180.0 300.0,180.0 L430.0,180.0 Q437.0,180.0 438.0,174.0 L440.0,30.0" fill="none" stroke="#94a3b8" stroke-width="2.5" stroke-linejoin="round" stroke-linecap="round" />
<path d="M290.0,30.0 L284.0,27.0" fill="none" stroke="#94a3b8" stroke-width="2.5" stroke-linejoin="round" stroke-linecap="round" />
<line x1="426.0" y1="147.6" x2="436.0" y2="147.6" stroke="#94a3b8" stroke-width="1.5" stroke-linecap="round" />
<line x1="426.0" y1="115.1" x2="436.0" y2="115.1" stroke="#94a3b8" stroke-width="1.5" stroke-linecap="round" />
<line x1="426.0" y1="82.7" x2="436.0" y2="82.7" stroke="#94a3b8" stroke-width="1.5" stroke-linecap="round" />
<circle cx="334.2" cy="143.5" r="3.2" fill="#6d28d9" stroke="none" stroke-width="1" />
<circle cx="388.5" cy="157.7" r="3.2" fill="#6d28d9" stroke="none" stroke-width="1" />
<circle cx="324.9" cy="104.1" r="3.2" fill="#6d28d9" stroke="none" stroke-width="1" />
<circle cx="394.9" cy="95.4" r="3.2" fill="#6d28d9" stroke="none" stroke-width="1" />
<circle cx="369.0" cy="102.6" r="3.2" fill="#6d28d9" stroke="none" stroke-width="1" />
<circle cx="338.8" cy="121.5" r="3.2" fill="#6d28d9" stroke="none" stroke-width="1" />
<circle cx="408.1" cy="136.8" r="3.2" fill="#6d28d9" stroke="none" stroke-width="1" />
<circle cx="303.0" cy="108.0" r="3.2" fill="#6d28d9" stroke="none" stroke-width="1" />
<circle cx="319.9" cy="159.6" r="3.2" fill="#6d28d9" stroke="none" stroke-width="1" />
<circle cx="404.5" cy="154.0" r="3.2" fill="#6d28d9" stroke="none" stroke-width="1" />
<circle cx="422.3" cy="152.9" r="3.2" fill="#6d28d9" stroke="none" stroke-width="1" />
<circle cx="334.0" cy="157.8" r="3.2" fill="#6d28d9" stroke="none" stroke-width="1" />
<circle cx="363.3" cy="149.6" r="3.2" fill="#6d28d9" stroke="none" stroke-width="1" />
<circle cx="373.2" cy="121.3" r="3.2" fill="#6d28d9" stroke="none" stroke-width="1" />
<circle cx="341.2" cy="94.3" r="3.2" fill="#6d28d9" stroke="none" stroke-width="1" />
<circle cx="318.4" cy="142.8" r="3.2" fill="#6d28d9" stroke="none" stroke-width="1" />
<circle cx="327.1" cy="129.4" r="3.2" fill="#6d28d9" stroke="none" stroke-width="1" />
<circle cx="422.9" cy="117.9" r="3.2" fill="#6d28d9" stroke="none" stroke-width="1" />
<circle cx="354.0" cy="159.4" r="3.2" fill="#6d28d9" stroke="none" stroke-width="1" />
<circle cx="349.0" cy="146.2" r="3.2" fill="#6d28d9" stroke="none" stroke-width="1" />
<circle cx="378.2" cy="146.8" r="3.2" fill="#6d28d9" stroke="none" stroke-width="1" />
<circle cx="344.8" cy="109.7" r="3.2" fill="#6d28d9" stroke="none" stroke-width="1" />
<circle cx="306.2" cy="122.2" r="3.2" fill="#6d28d9" stroke="none" stroke-width="1" />
<circle cx="301.6" cy="170.6" r="3.2" fill="#6d28d9" stroke="none" stroke-width="1" />
<circle cx="364.6" cy="168.2" r="3.2" fill="#6d28d9" stroke="none" stroke-width="1" />
<circle cx="386.6" cy="109.8" r="3.2" fill="#6d28d9" stroke="none" stroke-width="1" />
<circle cx="409.5" cy="106.5" r="3.2" fill="#6d28d9" stroke="none" stroke-width="1" />
<circle cx="377.7" cy="84.4" r="3.2" fill="#6d28d9" stroke="none" stroke-width="1" />
<text x="365.0" y="214.0" font-size="19" text-anchor="middle" font-weight="700" fill="#1f2937" >Koncentrerad</text>
<text x="365.0" y="236.0" font-size="14" text-anchor="middle" font-weight="400" fill="#1f2937" >mycket löst ämne</text>
<path d="M530.0,30.0 L532.0,174.0 Q533.0,180.0 540.0,180.0 L670.0,180.0 Q677.0,180.0 678.0,174.0 L680.0,30.0" fill="#ffffff" stroke="none" stroke-width="2" stroke-linejoin="round" stroke-linecap="round" />
<path d="M531.0,74.9 L532.0,174.0 Q533.0,179.0 540.0,179.0 L670.0,179.0 Q677.0,179.0 678.0,174.0 L679.0,74.9 Z" fill="#ede9fe" stroke="none" stroke-width="2" stroke-linejoin="round" stroke-linecap="round" />
<line x1="531.0" y1="74.9" x2="679.0" y2="74.9" stroke="#64748b" stroke-width="1.2" stroke-linecap="round" />
<path d="M530.0,30.0 L532.0,174.0 Q533.0,180.0 540.0,180.0 L670.0,180.0 Q677.0,180.0 678.0,174.0 L680.0,30.0" fill="none" stroke="#94a3b8" stroke-width="2.5" stroke-linejoin="round" stroke-linecap="round" />
<path d="M530.0,30.0 L524.0,27.0" fill="none" stroke="#94a3b8" stroke-width="2.5" stroke-linejoin="round" stroke-linecap="round" />
<line x1="666.0" y1="147.6" x2="676.0" y2="147.6" stroke="#94a3b8" stroke-width="1.5" stroke-linecap="round" />
<line x1="666.0" y1="115.1" x2="676.0" y2="115.1" stroke="#94a3b8" stroke-width="1.5" stroke-linecap="round" />
<line x1="666.0" y1="82.7" x2="676.0" y2="82.7" stroke="#94a3b8" stroke-width="1.5" stroke-linecap="round" />
<circle cx="554.8" cy="131.0" r="3.2" fill="#6d28d9" stroke="none" stroke-width="1" />
<circle cx="624.4" cy="146.8" r="3.2" fill="#6d28d9" stroke="none" stroke-width="1" />
<circle cx="575.8" cy="101.1" r="3.2" fill="#6d28d9" stroke="none" stroke-width="1" />
<circle cx="634.9" cy="128.0" r="3.2" fill="#6d28d9" stroke="none" stroke-width="1" />
<circle cx="579.9" cy="129.7" r="3.2" fill="#6d28d9" stroke="none" stroke-width="1" />
<circle cx="591.8" cy="136.0" r="3.2" fill="#6d28d9" stroke="none" stroke-width="1" />
<circle cx="556.3" cy="99.0" r="3.2" fill="#6d28d9" stroke="none" stroke-width="1" />
<circle cx="656.2" cy="108.0" r="3.2" fill="#6d28d9" stroke="none" stroke-width="1" />
<circle cx="621.8" cy="94.1" r="3.2" fill="#6d28d9" stroke="none" stroke-width="1" />
<circle cx="611.6" cy="128.4" r="3.2" fill="#6d28d9" stroke="none" stroke-width="1" />
<circle cx="565.9" cy="114.3" r="3.2" fill="#6d28d9" stroke="none" stroke-width="1" />
<circle cx="569.0" cy="137.3" r="3.2" fill="#6d28d9" stroke="none" stroke-width="1" />
<circle cx="605.1" cy="90.9" r="3.2" fill="#6d28d9" stroke="none" stroke-width="1" />
<circle cx="645.6" cy="90.1" r="3.2" fill="#6d28d9" stroke="none" stroke-width="1" />
<circle cx="577.0" cy="85.9" r="3.2" fill="#6d28d9" stroke="none" stroke-width="1" />
<circle cx="609.4" cy="114.4" r="3.2" fill="#6d28d9" stroke="none" stroke-width="1" />
<circle cx="651.6" cy="146.7" r="3.2" fill="#6d28d9" stroke="none" stroke-width="1" />
<circle cx="666.6" cy="123.2" r="3.2" fill="#6d28d9" stroke="none" stroke-width="1" />
<circle cx="638.4" cy="108.7" r="3.2" fill="#6d28d9" stroke="none" stroke-width="1" />
<circle cx="606.0" cy="140.2" r="3.2" fill="#6d28d9" stroke="none" stroke-width="1" />
<circle cx="588.0" cy="109.7" r="3.2" fill="#6d28d9" stroke="none" stroke-width="1" />
<circle cx="547.1" cy="111.2" r="3.2" fill="#6d28d9" stroke="none" stroke-width="1" />
<circle cx="595.6" cy="149.5" r="3.2" fill="#6d28d9" stroke="none" stroke-width="1" />
<circle cx="660.0" cy="88.6" r="3.2" fill="#6d28d9" stroke="none" stroke-width="1" />
<circle cx="579.0" cy="148.9" r="3.2" fill="#6d28d9" stroke="none" stroke-width="1" />
<circle cx="668.4" cy="99.8" r="3.2" fill="#6d28d9" stroke="none" stroke-width="1" />
<circle cx="667.4" cy="146.0" r="3.2" fill="#6d28d9" stroke="none" stroke-width="1" />
<circle cx="650.1" cy="121.2" r="3.2" fill="#6d28d9" stroke="none" stroke-width="1" />
<circle cx="610.0" cy="166.1" r="3.6" fill="#ffffff" stroke="#6d28d9" stroke-width="1.6" />
<circle cx="545.4" cy="169.4" r="3.6" fill="#ffffff" stroke="#6d28d9" stroke-width="1.6" />
<circle cx="568.2" cy="165.9" r="3.6" fill="#ffffff" stroke="#6d28d9" stroke-width="1.6" />
<circle cx="592.0" cy="169.2" r="3.6" fill="#ffffff" stroke="#6d28d9" stroke-width="1.6" />
<circle cx="667.0" cy="167.7" r="3.6" fill="#ffffff" stroke="#6d28d9" stroke-width="1.6" />
<circle cx="617.6" cy="171.7" r="3.6" fill="#ffffff" stroke="#6d28d9" stroke-width="1.6" />
<circle cx="626.8" cy="170.3" r="3.6" fill="#ffffff" stroke="#6d28d9" stroke-width="1.6" />
<circle cx="555.8" cy="168.0" r="3.6" fill="#ffffff" stroke="#6d28d9" stroke-width="1.6" />
<circle cx="580.8" cy="170.9" r="3.6" fill="#ffffff" stroke="#6d28d9" stroke-width="1.6" />
<circle cx="652.8" cy="165.8" r="3.6" fill="#ffffff" stroke="#6d28d9" stroke-width="1.6" />
<circle cx="642.7" cy="169.3" r="3.6" fill="#ffffff" stroke="#6d28d9" stroke-width="1.6" />
<circle cx="600.8" cy="166.6" r="3.6" fill="#ffffff" stroke="#6d28d9" stroke-width="1.6" />
<circle cx="634.5" cy="165.3" r="3.6" fill="#ffffff" stroke="#6d28d9" stroke-width="1.6" />
<circle cx="659.2" cy="172.4" r="3.6" fill="#ffffff" stroke="#6d28d9" stroke-width="1.6" />
<line x1="730.0" y1="168.0" x2="690.0" y2="168.0" stroke="#1f2937" stroke-width="2" stroke-linecap="round" />
<polygon points="682.0,168.0 690.0,163.6 690.0,172.4" fill="#1f2937" stroke="#1f2937" stroke-width="1" stroke-linejoin="round" />
<text x="736.0" y="164.0" font-size="14" text-anchor="start" font-weight="700" fill="#1f2937" >olöst ämne</text>
<text x="736.0" y="182.0" font-size="14" text-anchor="start" font-weight="700" fill="#1f2937" >på botten</text>
<text x="605.0" y="214.0" font-size="19" text-anchor="middle" font-weight="700" fill="#1f2937" >Mättad</text>
<text x="605.0" y="236.0" font-size="14" text-anchor="middle" font-weight="400" fill="#1f2937" >mer går inte att lösa</text>
</svg>
