<svg xmlns="http://www.w3.org/2000/svg" viewBox="0 0 400 330" width="400" height="330" role="img" aria-labelledby="t d" font-family="system-ui, -apple-system, 'Segoe UI', Roboto, Arial, sans-serif">
<title id="t">Densitet: olja flyter på vatten, aluminium sjunker</title>
<desc id="d">En bägare med ett lager matolja ovanpå vatten. En kork flyter på oljan. En aluminiumbit ligger på botten. Siffrorna visar densiteten i gram per kubikcentimeter: kork mindre än 0,9, olja 0,91, vatten 1,00 och aluminium 2,7.</desc>
<path d="M70.0,40.0 L72.0,264.0 Q73.0,270.0 80.0,270.0 L230.0,270.0 Q237.0,270.0 238.0,264.0 L240.0,40.0" fill="#ffffff" stroke="none" stroke-width="2" stroke-linejoin="round" stroke-linecap="round" />
<path d="M71.0,89.2 L72.0,264.0 Q73.0,269.0 80.0,269.0 L230.0,269.0 Q237.0,269.0 238.0,264.0 L239.0,89.2 Z" fill="#fde68a" stroke="none" stroke-width="2" stroke-linejoin="round" stroke-linecap="round" />
<line x1="71.0" y1="89.2" x2="239.0" y2="89.2" stroke="#64748b" stroke-width="1.2" stroke-linecap="round" />
<path d="M70.0,40.0 L72.0,264.0 Q73.0,270.0 80.0,270.0 L230.0,270.0 Q237.0,270.0 238.0,264.0 L240.0,40.0" fill="none" stroke="#94a3b8" stroke-width="2.5" stroke-linejoin="round" stroke-linecap="round" />
<path d="M71.0,152.5 L72.0,264.0 Q73.0,269.0 80.0,269.0 L230.0,269.0 Q237.0,269.0 238.0,264.0 L239.0,152.5 Z" fill="#dbeafe" stroke="#334155" stroke-width="2" stroke-linejoin="round" stroke-linecap="round" />
<line x1="71.0" y1="152.5" x2="239.0" y2="152.5" stroke="#64748b" stroke-width="1.4" stroke-linecap="round" />
<line x1="71.0" y1="89.2" x2="239.0" y2="89.2" stroke="#64748b" stroke-width="1.2" stroke-linecap="round" />
<path d="M70.0,40.0 L72.0,264.0 Q73.0,270.0 80.0,270.0 L230.0,270.0 Q237.0,270.0 238.0,264.0 L240.0,40.0" fill="none" stroke="#94a3b8" stroke-width="2.5" stroke-linejoin="round" stroke-linecap="round" />
<rect x="136.0" y="73.2" width="40.0" height="24.0" rx="3" fill="#a16207" stroke="#78350f" stroke-width="1.8" />
<circle cx="146.0" cy="81.2" r="1.8" fill="#78350f" stroke="none" stroke-width="1.5" />
<circle cx="160.0" cy="88.2" r="1.8" fill="#78350f" stroke="none" stroke-width="1.5" />
<circle cx="167.0" cy="79.2" r="1.8" fill="#78350f" stroke="none" stroke-width="1.5" />
<circle cx="152.0" cy="90.2" r="1.8" fill="#78350f" stroke="none" stroke-width="1.5" />
<rect x="130.0" y="238.0" width="46.0" height="26.0" rx="3" fill="#e5e7eb" stroke="#334155" stroke-width="2" />
<line x1="136.0" y1="244.0" x2="170.0" y2="244.0" stroke="#6b7280" stroke-width="1.2" stroke-linecap="round" />
<line x1="176.0" y1="83.2" x2="254.0" y2="65.2" stroke="#334155" stroke-width="1.4" stroke-linecap="round" />
<circle cx="176.0" cy="83.2" r="3.2" fill="#334155" stroke="none" stroke-width="1.5" />
<text x="260.0" y="63.2" font-size="15" text-anchor="start" font-weight="700" fill="#1f2937" >Kork</text>
<text x="260.0" y="80.2" font-size="13.5" text-anchor="start" font-weight="400" fill="#475569" >0,2 – 0,9*</text>
<line x1="200.0" y1="115.2" x2="254.0" y2="115.2" stroke="#334155" stroke-width="1.4" stroke-linecap="round" />
<circle cx="200.0" cy="115.2" r="3.2" fill="#334155" stroke="none" stroke-width="1.5" />
<text x="260.0" y="113.2" font-size="15" text-anchor="start" font-weight="700" fill="#1f2937" >Olja</text>
<text x="260.0" y="130.2" font-size="13.5" text-anchor="start" font-weight="400" fill="#475569" >0,91 g/cm³</text>
<line x1="202.0" y1="192.5" x2="254.0" y2="192.5" stroke="#334155" stroke-width="1.4" stroke-linecap="round" />
<circle cx="202.0" cy="192.5" r="3.2" fill="#334155" stroke="none" stroke-width="1.5" />
<text x="260.0" y="190.5" font-size="15" text-anchor="start" font-weight="700" fill="#1f2937" >Vatten</text>
<text x="260.0" y="207.5" font-size="13.5" text-anchor="start" font-weight="400" fill="#475569" >1,00 g/cm³</text>
<line x1="176.0" y1="251.0" x2="254.0" y2="232.0" stroke="#334155" stroke-width="1.4" stroke-linecap="round" />
<circle cx="176.0" cy="251.0" r="3.2" fill="#334155" stroke="none" stroke-width="1.5" />
<text x="260.0" y="230.0" font-size="15" text-anchor="start" font-weight="700" fill="#1f2937" >Aluminium</text>
<text x="260.0" y="247.0" font-size="13.5" text-anchor="start" font-weight="400" fill="#475569" >2,7 g/cm³</text>
<text x="200.0" y="306.0" font-size="16" text-anchor="middle" font-weight="700" fill="#1f2937" >Lägst densitet ligger överst.</text>
<text x="200.0" y="324.0" font-size="12.5" text-anchor="middle" font-weight="400" fill="#475569" >*ungefär – olika korkar skiljer sig</text>
</svg>
