<svg xmlns="http://www.w3.org/2000/svg" viewBox="0 0 200 200" width="200" height="200" role="img" aria-labelledby="t d">
  <title id="t">GHS09 – Miljöfarlig</title>
  <desc id="d">Faropiktogram Miljöfarlig: ett dött träd och en död fisk som flyter på vattnet.</desc>
  <polygon points="100,7 193,100 100,193 7,100" fill="#ffffff" stroke="#E2001A" stroke-width="15" stroke-linejoin="miter"/>
  <g transform="translate(50.0 48.0) scale(1.0)">
  <rect x="4" y="80" width="38" height="5" rx="1" fill="#111111"/>
  <path d="M19 82 L20 30 L26 30 L27 82 Z" fill="#111111"/>
  <polyline points="22 62 12 52 6 44" fill="none" stroke="#111111" stroke-width="4" stroke-linecap="round" stroke-linejoin="round"/>
  <polyline points="11 51 10 40" fill="none" stroke="#111111" stroke-width="4" stroke-linecap="round" stroke-linejoin="round"/>
  <polyline points="23 48 35 38 38 30" fill="none" stroke="#111111" stroke-width="4" stroke-linecap="round" stroke-linejoin="round"/>
  <polyline points="22 38 12 28 9 20" fill="none" stroke="#111111" stroke-width="4" stroke-linecap="round" stroke-linejoin="round"/>
  <polyline points="23 30 30 20" fill="none" stroke="#111111" stroke-width="4" stroke-linecap="round" stroke-linejoin="round"/>
  <polyline points="25 66 35 60" fill="none" stroke="#111111" stroke-width="4" stroke-linecap="round" stroke-linejoin="round"/>
  <path d="M46 84 C51 79 55 89 60 84 C65 79 69 89 74 84 C79 79 83 89 88 84 C91 82 93 83 96 84" fill="none" stroke="#111111" stroke-width="4.2" stroke-linecap="round"/>
  <g transform="rotate(180 70 63)">
    <ellipse cx="68" cy="63" rx="17" ry="9.5" fill="#111111"/>
    <path d="M82 63 L96 52 L96 74 Z" fill="#111111"/>
    <path d="M62 55 L69 46 L76 56 Z" fill="#111111"/>
    <path d="M58 71 L62 77 L69 71 Z" fill="#111111"/>
    <path d="M55 59 L60.5 64.5 M60.5 59 L55 64.5" stroke="#fff" stroke-width="2.6" stroke-linecap="round"/>
  </g>

  </g>
</svg>
