<svg xmlns="http://www.w3.org/2000/svg" viewBox="0 0 200 200" width="200" height="200" role="img" aria-labelledby="t d">
  <title id="t">GHS05 – Frätande</title>
  <desc id="d">Faropiktogram Frätande: två provrör som droppar på en metallbit och en hand så att de fräts sönder.</desc>
  <polygon points="100,7 193,100 100,193 7,100" fill="#ffffff" stroke="#E2001A" stroke-width="15" stroke-linejoin="miter"/>
  <g transform="translate(50.0 50.0) scale(1.0)">
  <g transform="rotate(32 28 14)"><path d="M21 3 L35 3 L35 24 A7 7 0 0 1 21 24 Z" fill="#111111"/><rect x="19" y="0" width="18" height="5" rx="1.5" fill="#111111"/><path d="M25 12 L25 24" stroke="#fff" stroke-width="2" stroke-linecap="round"/></g>
  <g transform="rotate(-32 72 14)"><path d="M65 3 L79 3 L79 24 A7 7 0 0 1 65 24 Z" fill="#111111"/><rect x="63" y="0" width="18" height="5" rx="1.5" fill="#111111"/><path d="M69 12 L69 24" stroke="#fff" stroke-width="2" stroke-linecap="round"/></g>
  <path d="M33 32 C38 39 39 43 33 45 C27 43 28 39 33 32 Z" fill="#111111"/><path d="M36 46 C41 53 42 57 36 59 C30 57 31 53 36 46 Z" fill="#111111"/>
  <path d="M67 32 C72 39 73 43 67 45 C61 43 62 39 67 32 Z" fill="#111111"/><path d="M64 46 C69 53 70 57 64 59 C58 57 59 53 64 46 Z" fill="#111111"/>
  <path d="M4 68 L44 68 L44 90 L4 90 Z" fill="#111111"/>
  <path d="M4 68 L15 68 L21 76 L12 80 L4 76 Z" fill="#fff"/>
  <path d="M44 90 L38 86 L42 80 L36 77 L44 72 Z" fill="#fff"/>
  <circle cx="26" cy="83" r="3" fill="#fff"/><circle cx="32" cy="73" r="2.2" fill="#fff"/>
  <rect x="55" y="72" width="36" height="22" rx="8" fill="#111111"/>
  <rect x="56" y="62" width="7" height="20" rx="3.5" fill="#111111"/><rect x="65" y="58" width="7" height="24" rx="3.5" fill="#111111"/><rect x="74" y="60" width="7" height="22" rx="3.5" fill="#111111"/><rect x="83" y="64" width="7" height="18" rx="3.5" fill="#111111"/>
  <path d="M55 82 C48 80 46 74 50 70 C54 70 56 76 57 80 Z" fill="#111111"/>
  <circle cx="72" cy="86" r="3.2" fill="#fff"/><circle cx="82" cy="78" r="2.3" fill="#fff"/><circle cx="66" cy="76" r="2" fill="#fff"/><circle cx="87" cy="88" r="2" fill="#fff"/>

  </g>
</svg>
